<?xml version="1.0" encoding="utf-8"?>
<!-- Generator: Adobe Illustrator 21.1.0, SVG Export Plug-In . SVG Version: 6.00 Build 0)  -->
<svg version="1.1" id="Layer_1" xmlns="http://www.w3.org/2000/svg" xmlns:xlink="http://www.w3.org/1999/xlink" x="0px" y="0px"
	 viewBox="0 0 512 512" style="enable-background:new 0 0 512 512;" xml:space="preserve">
<style type="text/css">
	.st0{fill:#FFFFFF;}
</style>
<g>
	<g>
		<g>
			<path class="st0" d="M93.9,255.8H59.7c-4.7,0-8.5,3.8-8.5,8.5v17.1c0,4.7,3.8,8.5,8.5,8.5s8.5-3.8,8.5-8.5v-8.5h17.1v42.7
				c0,4.7,3.8,8.5,8.5,8.5c4.7,0,8.5-3.8,8.5-8.5v-51.2C102.4,259.6,98.6,255.8,93.9,255.8z"/>
			<path class="st0" d="M225.4,32.3l9.8,7.1l-4,11.2c-1.2,3.2-0.3,6.8,2.2,9.1c1.6,1.5,3.7,2.3,5.8,2.3c1.2,0,2.4-0.2,3.5-0.7
				l13.7-6.1l13.4,6c3.1,1.4,6.7,0.8,9.3-1.5s3.4-5.9,2.3-9.1l-3.8-11L287,32c2.8-2.3,3.9-6.1,2.7-9.5c-1.2-3.4-4.4-5.7-8-5.7h-11.8
				l-6.2-12.3c-2.9-5.8-12.4-5.8-15.3,0l-6.2,12.3h-11.8c-3.7,0-7,2.4-8.1,5.9C221.1,26.3,222.4,30.1,225.4,32.3z M255.1,29.2
				l0.9-1.8l0.9,1.8c0.7,1.5,1.8,2.6,3.2,3.4c-0.8,1.5-1.2,3.3-1,5.1c-0.9-0.3-1.8-0.5-2.7-0.5c-0.9,0-1.8,0.1-2.6,0.4
				c0.3-2,0-3.9-1-5.6C253.7,31.3,254.5,30.4,255.1,29.2z"/>
			<path class="st0" d="M42.7,307C0.5,307,0,416.8,0,417.9c0,20.6,14.7,37.8,34.1,41.8v43.5c0,4.7,3.8,8.5,8.5,8.5s8.5-3.8,8.5-8.5
				v-43.5c19.4-4,34.1-21.2,34.1-41.8C85.3,416.8,84.8,307,42.7,307z M42.7,443.5c-14.1,0-25.6-11.5-25.6-25.6
				c0-42.5,11.4-93.9,25.6-93.9s25.6,51.4,25.6,93.9C68.3,432.1,56.8,443.5,42.7,443.5z"/>
			<path class="st0" d="M148.6,32.3l9.8,7.1l-4,11.2c-1.2,3.2-0.3,6.8,2.2,9.1c1.6,1.5,3.7,2.3,5.8,2.3c1.2,0,2.4-0.2,3.5-0.7
				l13.7-6.1l13.4,6c3.1,1.4,6.7,0.8,9.3-1.5c2.5-2.3,3.4-5.9,2.3-9.1l-3.8-11l9.4-7.6c2.8-2.3,3.9-6.1,2.7-9.5
				c-1.2-3.4-4.4-5.7-8-5.7H193l-6.2-12.3c-2.9-5.8-12.4-5.8-15.3,0l-6.2,12.3h-11.8c-3.7,0-7,2.4-8.1,5.9
				C144.3,26.3,145.6,30.1,148.6,32.3z M178.3,29.2l0.9-1.8l0.9,1.8c0.7,1.5,1.8,2.6,3.2,3.4c-0.8,1.5-1.2,3.3-1,5.1
				c-0.9-0.3-1.8-0.5-2.7-0.5c-0.9,0-1.8,0.1-2.6,0.4c0.3-2,0-3.9-1-5.6C176.9,31.3,177.7,30.4,178.3,29.2z"/>
			<path class="st0" d="M310.7,32.3l9.8,7.1l-4,11.2c-1.2,3.2-0.3,6.8,2.2,9.1c1.6,1.5,3.7,2.3,5.8,2.3c1.2,0,2.4-0.2,3.5-0.7
				l13.7-6.1l13.4,6c3.1,1.4,6.7,0.8,9.3-1.5c2.5-2.3,3.4-5.9,2.3-9.1l-3.8-11l9.4-7.6c2.8-2.3,3.9-6.1,2.7-9.5
				c-1.2-3.4-4.4-5.7-8-5.7h-11.8L349,4.5c-2.9-5.8-12.4-5.8-15.3,0l-6.2,12.3h-11.8c-3.7,0-7,2.4-8.1,5.9
				C306.5,26.3,307.7,30.1,310.7,32.3z M340.4,29.2l0.9-1.8l0.9,1.8c0.7,1.5,1.8,2.6,3.2,3.4c-0.8,1.5-1.2,3.3-1,5.1
				c-0.9-0.3-1.8-0.5-2.7-0.5c-0.9,0-1.8,0.1-2.6,0.4c0.3-2,0-3.9-1-5.6C339.1,31.3,339.9,30.4,340.4,29.2z"/>
			<path class="st0" d="M63.2,32.3l9.8,7.1l-4,11.2c-1.2,3.2-0.3,6.8,2.2,9.1c1.6,1.5,3.7,2.3,5.8,2.3c1.2,0,2.4-0.2,3.5-0.7
				l13.7-6.1l13.4,6c3.1,1.4,6.7,0.8,9.3-1.5c2.5-2.3,3.4-5.9,2.3-9.1l-3.8-11l9.4-7.6c2.8-2.3,3.9-6.1,2.7-9.5
				c-1.2-3.4-4.4-5.7-8-5.7h-11.8l-6.2-12.3c-2.9-5.8-12.4-5.8-15.3,0l-6.2,12.3H68.3c-3.7,0-7,2.4-8.1,5.9
				C59,26.3,60.3,30.1,63.2,32.3z M93,29.2l0.9-1.8l0.9,1.8c0.7,1.5,1.8,2.6,3.2,3.4c-0.8,1.5-1.2,3.3-1,5.1
				c-0.9-0.3-1.8-0.5-2.7-0.5c-0.9,0-1.8,0.1-2.6,0.4c0.3-2,0-3.9-1-5.6C91.6,31.3,92.4,30.4,93,29.2z"/>
			<path class="st0" d="M396,32.3l9.8,7.1l-4,11.2c-1.2,3.2-0.3,6.8,2.2,9.1c1.6,1.5,3.7,2.3,5.8,2.3c1.2,0,2.4-0.2,3.5-0.7
				l13.7-6.1l13.4,6c3.1,1.4,6.7,0.8,9.3-1.5c2.5-2.3,3.4-5.9,2.3-9.1l-3.8-11l9.4-7.6c2.8-2.3,3.9-6.1,2.7-9.5
				c-1.2-3.4-4.4-5.7-8-5.7h-11.8l-6.2-12.3c-2.9-5.8-12.4-5.8-15.3,0l-6.2,12.3h-11.8c-3.7,0-7,2.4-8.1,5.9
				C391.8,26.3,393.1,30.1,396,32.3z M425.8,29.2l0.9-1.8l0.9,1.8c0.7,1.5,1.8,2.6,3.2,3.4c-0.8,1.5-1.2,3.3-1,5.1
				c-0.9-0.3-1.8-0.5-2.7-0.5c-0.9,0-1.8,0.1-2.6,0.4c0.3-2,0-3.9-1-5.6C424.4,31.3,425.2,30.4,425.8,29.2z"/>
			<path class="st0" d="M486.4,460.6c-1.5,0-2.9,0.1-4.4,0.4c-5.9-10.6-17.1-17.5-29.7-17.5s-23.9,6.9-29.7,17.5
				c-1.4-0.3-2.9-0.4-4.4-0.4c-14.1,0-25.6,11.5-25.6,25.6c0,14.1,11.5,25.6,25.6,25.6h68.3c14.1,0,25.6-11.5,25.6-25.6
				C512,472.1,500.5,460.6,486.4,460.6z M486.4,494.7h-68.3c-4.7,0-8.5-3.8-8.5-8.5c0-4.7,3.8-8.5,8.5-8.5c1.6,0,3.2,0.5,4.6,1.4
				c2.3,1.5,5.3,1.8,7.8,0.7c2.6-1,4.5-3.3,5.1-6c1.8-7.8,8.6-13.2,16.6-13.2c8,0,14.8,5.4,16.6,13.2c0.6,2.7,2.5,4.9,5.1,6
				c2.6,1,5.5,0.8,7.8-0.7c5.6-3.6,13.2,0.8,13.2,7.1C494.9,490.9,491.1,494.7,486.4,494.7z"/>
			<path class="st0" d="M93.9,153.4H59.7c-4.7,0-8.5,3.8-8.5,8.5v51.2c0,4.7,3.8,8.5,8.5,8.5h34.1c4.7,0,8.5-3.8,8.5-8.5v-51.2
				C102.4,157.2,98.6,153.4,93.9,153.4z M85.3,204.6H68.3v-34.1h17.1L85.3,204.6L85.3,204.6z"/>
			<path class="st0" d="M366.9,119.3c-4.7,0-8.5,3.8-8.5,8.5v324.3c0,4.7,3.8,8.5,8.5,8.5s8.5-3.8,8.5-8.5V127.8
				C375.5,123.1,371.7,119.3,366.9,119.3z"/>
			<path class="st0" d="M409.6,315.5c0,4.7,3.8,8.5,8.5,8.5h34.1c4.7,0,8.5-3.8,8.5-8.5v-51.2c0-4.7-3.8-8.5-8.5-8.5h-34.1
				c-4.7,0-8.5,3.8-8.5,8.5V315.5z M426.7,272.9h17.1V307h-17.1V272.9z"/>
			<path class="st0" d="M503.5,68.1c-4.7,0-8.5,3.8-8.5,8.5v8.5H17.1v-8.5c0-4.7-3.8-8.5-8.5-8.5S0,71.9,0,76.6v204.8
				c0,4.7,3.8,8.5,8.5,8.5s8.5-3.8,8.5-8.5V102.2h477.9v341.3c0,4.7,3.8,8.5,8.5,8.5s8.5-3.8,8.5-8.5V76.6
				C512,71.9,508.2,68.1,503.5,68.1z"/>
			<path class="st0" d="M409.6,417.9c0,4.7,3.8,8.5,8.5,8.5h34.1c4.7,0,8.5-3.8,8.5-8.5v-51.2c0-4.7-3.8-8.5-8.5-8.5h-34.1
				c-4.7,0-8.5,3.8-8.5,8.5V417.9z M426.7,375.3h17.1v34.1h-17.1V375.3z"/>
			<path class="st0" d="M418.1,221.7h34.1c4.7,0,8.5-3.8,8.5-8.5v-51.2c0-4.7-3.8-8.5-8.5-8.5h-34.1c-4.7,0-8.5,3.8-8.5,8.5v51.2
				C409.6,217.9,413.4,221.7,418.1,221.7z M426.7,170.5h17.1v34.1h-17.1V170.5z"/>
			<path class="st0" d="M281.6,221.7h34.1c4.7,0,8.5-3.8,8.5-8.5v-51.2c0-4.7-3.8-8.5-8.5-8.5h-34.1c-4.7,0-8.5,3.8-8.5,8.5v51.2
				C273.1,217.9,276.9,221.7,281.6,221.7z M290.1,170.5h17.1v34.1h-17.1L290.1,170.5L290.1,170.5z"/>
			<path class="st0" d="M153.6,452.1V127.8c0-4.7-3.8-8.5-8.5-8.5s-8.5,3.8-8.5,8.5v324.3c0,4.7,3.8,8.5,8.5,8.5
				S153.6,456.8,153.6,452.1z"/>
			<path class="st0" d="M366.9,477.7H128c-4.7,0-8.5,3.8-8.5,8.5v17.1c0,4.7,3.8,8.5,8.5,8.5s8.5-3.8,8.5-8.5v-8.5h230.4
				c4.7,0,8.5-3.8,8.5-8.5C375.5,481.5,371.7,477.7,366.9,477.7z"/>
			<path class="st0" d="M187.7,315.5c0,4.7,3.8,8.5,8.5,8.5h34.1c4.7,0,8.5-3.8,8.5-8.5v-51.2c0-4.7-3.8-8.5-8.5-8.5h-34.1
				c-4.7,0-8.5,3.8-8.5,8.5L187.7,315.5L187.7,315.5z M204.8,272.9h17.1V307h-17.1V272.9z"/>
			<path class="st0" d="M196.3,221.7h34.1c4.7,0,8.5-3.8,8.5-8.5v-51.2c0-4.7-3.8-8.5-8.5-8.5h-34.1c-4.7,0-8.5,3.8-8.5,8.5v51.2
				C187.7,217.9,191.5,221.7,196.3,221.7z M204.8,170.5h17.1v34.1h-17.1V170.5z"/>
			<path class="st0" d="M170.7,366.7c0,4.7,3.8,8.5,8.5,8.5h8.5v76.8c0,4.7,3.8,8.5,8.5,8.5s8.5-3.8,8.5-8.5v-76.8h42.7v34.1
				c-4.7,0-8.5,3.8-8.5,8.5c0,4.7,3.8,8.5,8.5,8.5v25.6c0,4.7,3.8,8.5,8.5,8.5s8.5-3.8,8.5-8.5v-25.6c4.7,0,8.5-3.8,8.5-8.5
				c0-4.7-3.8-8.5-8.5-8.5v-34.1h42.7v76.8c0,4.7,3.8,8.5,8.5,8.5s8.5-3.8,8.5-8.5v-76.8h8.5c4.7,0,8.5-3.8,8.5-8.5
				c0-4.7-3.8-8.5-8.5-8.5H179.2C174.5,358.2,170.7,362,170.7,366.7z"/>
			<path class="st0" d="M273.1,315.5c0,4.7,3.8,8.5,8.5,8.5h34.1c4.7,0,8.5-3.8,8.5-8.5v-51.2c0-4.7-3.8-8.5-8.5-8.5h-34.1
				c-4.7,0-8.5,3.8-8.5,8.5L273.1,315.5L273.1,315.5z M290.1,272.9h17.1V307h-17.1L290.1,272.9L290.1,272.9z"/>
		</g>
	</g>
</g>
</svg>
