<?xml version="1.0" encoding="utf-8"?>
<!-- Generator: Adobe Illustrator 21.1.0, SVG Export Plug-In . SVG Version: 6.00 Build 0)  -->
<svg version="1.1" id="Layer_1" xmlns="http://www.w3.org/2000/svg" xmlns:xlink="http://www.w3.org/1999/xlink" x="0px" y="0px"
	 viewBox="0 0 512 512" style="enable-background:new 0 0 512 512;" xml:space="preserve">
<style type="text/css">
	.st0{fill:#FFFFFF;}
</style>
<g>
	<g>
		<path class="st0" d="M260.1,1c-2.8-1.5-6.2-1.4-8.8,0.4c-72,48-148.9,135.6-148.9,237.5c0,111.4,51.5,183.1,145.1,203.1v61.4
			c0,4.7,3.8,8.5,8.5,8.5s8.5-3.8,8.5-8.5V363.3l98.2-57.3c4.1-2.4,5.4-7.6,3.1-11.7c-2.4-4.1-7.6-5.4-11.7-3.1l-89.6,52.3v-65.4
			L371,220.8c4.1-2.2,5.7-7.4,3.5-11.6c-2.2-4.1-7.4-5.7-11.6-3.5l-98.4,53v-66l80.9-44.5c4.1-2.3,5.6-7.5,3.4-11.6
			c-2.3-4.1-7.5-5.6-11.6-3.4l-72.7,40V59.7c0-4.7-3.8-8.5-8.5-8.5c-4.7,0-8.5,3.8-8.5,8.5v113.6l-72.7-40
			c-4.1-2.3-9.3-0.8-11.6,3.4c-2.3,4.1-0.8,9.3,3.4,11.6l80.9,44.5v66l-98.4-53c-4.1-2.2-9.3-0.7-11.6,3.5
			c-2.2,4.1-0.7,9.3,3.5,11.6l106.4,57.3v65.4l-89.6-52.3c-4.1-2.4-9.3-1-11.7,3.1c-2.4,4.1-1,9.3,3.1,11.7l98.2,57.3v61.3
			c-83.7-19.4-128-83.2-128-185.6c0-93.2,69.9-174.3,137-220.4c86.6,49,136.1,129.1,136.1,220.4c0,92.1-36.4,154-105.3,179.1
			c-4.4,1.6-6.7,6.5-5.1,10.9c1.6,4.4,6.5,6.7,10.9,5.1c76.2-27.7,116.5-95.2,116.5-195.2C409.6,139.6,355.1,52.9,260.1,1z"/>
	</g>
</g>
</svg>
