<svg xmlns="http://www.w3.org/2000/svg" viewBox="0 0 308.66 308.66"><defs><style>.cls-1{fill:#006594;}.cls-2{fill:#fff;}</style></defs><title>Asset 14</title><g id="Layer_2" data-name="Layer 2"><g id="circles"><circle class="cls-1" cx="154.33" cy="154.33" r="154.33"/></g><g id="symbols"><path class="cls-2" d="M216.19,174.43a2.13,2.13,0,0,0,2.13-2.13V125.36a8.54,8.54,0,0,0-8.53-8.53H154.33a2.13,2.13,0,0,0-2.13,2.13V133.9a6.22,6.22,0,0,0,6.4,6.4,5.94,5.94,0,0,0,5.17-3.23,6.31,6.31,0,0,1,5.49-3.17c3.71,0,6.4,3.59,6.4,8.53S173,151,169.26,151a6.38,6.38,0,0,1-5.53-3.23,5.88,5.88,0,0,0-5.14-3.17,6.22,6.22,0,0,0-6.4,6.4V178.7H124.46a2,2,0,0,1-2.13-2.13,1.67,1.67,0,0,1,1-1.43,10.65,10.65,0,0,0,5.39-9.24c0-6.08-5.5-10.67-12.8-10.67s-12.8,4.58-12.8,10.67a10.67,10.67,0,0,0,5.29,9.18c1.11.65,1.11,1.28,1.11,1.46a2,2,0,0,1-2.13,2.16H94.59V125.36a4.27,4.27,0,0,1,4.27-4.27h46.93a2.13,2.13,0,1,0,0-4.27H98.86a8.54,8.54,0,0,0-8.53,8.53v55.47A2.13,2.13,0,0,0,92.46,183h14.93a6.22,6.22,0,0,0,6.4-6.4,5.94,5.94,0,0,0-3.23-5.17,6.31,6.31,0,0,1-3.17-5.49c0-3.71,3.59-6.4,8.53-6.4s8.53,2.69,8.53,6.4a6.38,6.38,0,0,1-3.23,5.53,5.88,5.88,0,0,0-3.17,5.14,6.22,6.22,0,0,0,6.4,6.4h27.73V210.7a2,2,0,0,1-2.13,2.13,1.67,1.67,0,0,1-1.43-1,10.66,10.66,0,0,0-9.24-5.39c-6.08,0-10.67,5.5-10.67,12.8s4.58,12.8,10.67,12.8a10.67,10.67,0,0,0,9.18-5.29c.65-1.11,1.28-1.11,1.46-1.11a2,2,0,0,1,2.16,2.13v12.8H98.86a4.27,4.27,0,0,1-4.27-4.27V189.36a2.13,2.13,0,0,0-4.27,0V236.3a8.54,8.54,0,0,0,8.53,8.53h55.47a2.13,2.13,0,0,0,2.13-2.13V227.76a6.22,6.22,0,0,0-6.4-6.4,5.94,5.94,0,0,0-5.17,3.23,6.31,6.31,0,0,1-5.49,3.17c-3.71,0-6.4-3.59-6.4-8.53s2.69-8.53,6.4-8.53a6.37,6.37,0,0,1,5.53,3.23,5.87,5.87,0,0,0,5.14,3.17,6.22,6.22,0,0,0,6.4-6.4V183h27.73a2,2,0,0,1,2.13,2.13,1.67,1.67,0,0,1-1,1.43,10.66,10.66,0,0,0-5.39,9.24c0,6.08,5.5,10.67,12.8,10.67s12.8-4.58,12.8-10.67a10.67,10.67,0,0,0-5.29-9.18c-1.11-.65-1.11-1.28-1.11-1.46a2,2,0,0,1,2.13-2.16h12.8V236.3a4.27,4.27,0,0,1-4.27,4.27H162.86a2.13,2.13,0,0,0,0,4.27h46.93a8.54,8.54,0,0,0,8.53-8.53V180.83a2.13,2.13,0,0,0-2.13-2.13H201.26a6.22,6.22,0,0,0-6.4,6.4,5.94,5.94,0,0,0,3.23,5.17,6.31,6.31,0,0,1,3.17,5.49c0,3.71-3.59,6.4-8.53,6.4s-8.53-2.69-8.53-6.4a6.37,6.37,0,0,1,3.23-5.53,5.87,5.87,0,0,0,3.17-5.14,6.22,6.22,0,0,0-6.4-6.4H156.46V151a2,2,0,0,1,2.13-2.13,1.67,1.67,0,0,1,1.43,1,10.65,10.65,0,0,0,9.24,5.39c6.08,0,10.67-5.5,10.67-12.8s-4.58-12.8-10.67-12.8a10.67,10.67,0,0,0-9.18,5.29c-.65,1.11-1.28,1.11-1.46,1.11a2,2,0,0,1-2.16-2.13V121.1h53.33a4.27,4.27,0,0,1,4.27,4.27V172.3A2.13,2.13,0,0,0,216.19,174.43Z"/></g><g id="outlined_text" data-name="outlined text"><path class="cls-2" d="M88.22,69.24v-20h2.13v20Z"/><path class="cls-2" d="M105.05,69.24,97.31,51.81V69.24H95.36v-20H98.3L106,66.72V49.23h2v20Z"/><path class="cls-2" d="M117.47,51.09V69.24h-2.13V51.09h-4.5V49.23h11.1v1.86Z"/><path class="cls-2" d="M124.82,69.24v-20h8.79v1.86h-6.69V58h6.33v1.8h-6.33v7.62h7v1.86Z"/><path class="cls-2" d="M150.11,68.43a9.75,9.75,0,0,1-4.71,1.14c-6.06,0-8.58-5-8.58-10.32s3-10.32,8.64-10.32a9.67,9.67,0,0,1,4.26,1l-.18,2.16a7.6,7.6,0,0,0-4.2-1.26c-4.5,0-6.3,4.44-6.3,8.43s1.77,8.43,6.51,8.43a4.89,4.89,0,0,0,2.52-.6V60.3h-3.39V58.5h5.43Z"/><path class="cls-2" d="M163.61,69.24l-2.37-6.75c-.48-1.35-1-2.43-2.52-2.43h-2.19v9.18h-2.1v-20h5c3.15,0,5.37,2,5.37,5.16a4.49,4.49,0,0,1-3.93,4.83c1.17.21,1.62.81,2.07,2l3,8Zm-4.83-18.18h-2.25v7.17h2.34c2.49,0,3.66-1.29,3.66-3.69S161.06,51.06,158.78,51.06Z"/><path class="cls-2" d="M180.05,69.24l-1.62-5.43h-7.71l-1.65,5.43H167l6.54-20h2.25l6.51,20Zm-5.46-18L171.23,62h6.66Z"/><path class="cls-2" d="M188.51,51.09V69.24h-2.13V51.09h-4.5V49.23H193v1.86Z"/><path class="cls-2" d="M195.86,69.24v-20h8.79v1.86H198V58h6.33v1.8H198v7.62h7v1.86Z"/><path class="cls-2" d="M211.7,69.24h-2.85v-20h3.57c6.21,0,9,3.9,9,9.87C221.45,65.55,218.3,69.24,211.7,69.24Zm1-18.15H211V67.38h1.38c5.1,0,6.87-3.66,6.87-8.28C219.23,54.78,217.64,51.09,212.75,51.09Z"/><path class="cls-2" d="M108.68,95.57a9,9,0,0,1-3.87-.78L105,92.6a7,7,0,0,0,3.75,1.08,3.2,3.2,0,0,0,3.54-3.45c0-1.92-.93-2.88-3.09-4.47l-1.29-.93C106.07,83.48,105,82.28,105,80c0-3.84,3.24-5.1,5.55-5.1a7.48,7.48,0,0,1,3.3.63l-.18,2a5.77,5.77,0,0,0-3-.78c-1.65,0-3.48.84-3.48,3.09,0,1.68.84,2.4,2.19,3.36l1.26.9c2.64,1.83,3.81,3.3,3.81,5.79C114.5,93.32,112.16,95.57,108.68,95.57Z"/><path class="cls-2" d="M118.49,95.24v-20h8.79v1.86h-6.69V84h6.33v1.8h-6.33v7.62h7v1.86Z"/><path class="cls-2" d="M140.66,95.24l-2.37-6.75c-.48-1.35-1-2.43-2.52-2.43h-2.19v9.18h-2.1v-20h4.95c3.15,0,5.37,1.95,5.37,5.16a4.49,4.49,0,0,1-3.93,4.83c1.17.21,1.62.81,2.07,2l3,8Zm-4.83-18.18h-2.25v7.17h2.34c2.49,0,3.66-1.29,3.66-3.69S138.11,77.06,135.83,77.06Z"/><path class="cls-2" d="M152.06,95.24h-2.31l-5.79-20h2.25L151,92.84l4.71-17.61h2.1Z"/><path class="cls-2" d="M160.58,95.24v-20h2.13v20Z"/><path class="cls-2" d="M178.73,95a10.81,10.81,0,0,1-3.45.54c-5.94,0-8.55-5-8.55-10.32s3-10.32,8.61-10.32a7.81,7.81,0,0,1,3.42.66l-.18,2.16a6,6,0,0,0-3.27-.9c-4.53,0-6.36,4.41-6.36,8.43s1.89,8.37,6.39,8.37a6.78,6.78,0,0,0,3.21-.69Z"/><path class="cls-2" d="M182.21,95.24v-20H191v1.86h-6.69V84h6.33v1.8h-6.33v7.62h7v1.86Z"/><path class="cls-2" d="M197.93,95.57a9,9,0,0,1-3.87-.78l.18-2.19A7,7,0,0,0,198,93.68a3.2,3.2,0,0,0,3.54-3.45c0-1.92-.93-2.88-3.09-4.47l-1.29-.93c-1.83-1.35-2.88-2.55-2.88-4.8,0-3.84,3.24-5.1,5.55-5.1a7.49,7.49,0,0,1,3.3.63l-.18,2a5.77,5.77,0,0,0-3-.78c-1.65,0-3.48.84-3.48,3.09,0,1.68.84,2.4,2.19,3.36l1.26.9c2.64,1.83,3.81,3.3,3.81,5.79C203.75,93.32,201.41,95.57,197.93,95.57Z"/></g></g></svg>