<svg xmlns="http://www.w3.org/2000/svg" viewBox="0 0 308.66 308.66"><defs><style>.cls-1{fill:#006594;}.cls-2{fill:#fff;}</style></defs><title>Asset 8</title><g id="Layer_2" data-name="Layer 2"><g id="circles"><circle class="cls-1" cx="154.33" cy="154.33" r="154.33"/></g><g id="symbols"><path class="cls-2" d="M152.91,117.1a2.13,2.13,0,0,0-2.2.1c-18,12-37.22,33.89-37.22,59.37,0,27.84,12.88,45.77,36.27,50.78V242.7a2.13,2.13,0,1,0,4.27,0v-35l24.54-14.31a2.13,2.13,0,1,0-2.15-3.69L154,202.72V186.38L180.63,172a2.13,2.13,0,1,0-2-3.75L154,181.53V165l20.23-11.13a2.13,2.13,0,1,0-2.05-3.74l-18.17,10V131.77a2.13,2.13,0,0,0-4.27,0v28.39l-18.17-10a2.13,2.13,0,1,0-2.05,3.74L149.75,165v16.5l-24.59-13.24a2.13,2.13,0,1,0-2,3.75l26.61,14.33v16.35l-22.39-13.06a2.13,2.13,0,1,0-2.15,3.69l24.54,14.31V223c-20.93-4.84-32-20.81-32-46.41,0-23.3,17.49-43.58,34.24-55.1,21.64,12.25,34,32.26,34,55.1,0,23-9.11,38.51-26.33,44.78a2.13,2.13,0,1,0,1.46,4c19.06-6.94,29.14-23.81,29.14-48.79S176.66,130.06,152.91,117.1Z"/></g><g id="outlined_text" data-name="outlined text"><path class="cls-2" d="M91.28,82.24v-20h2.13V80.38h6.36v1.86Z"/><path class="cls-2" d="M113.75,82.24l-1.62-5.43h-7.71l-1.65,5.43h-2.1l6.54-20h2.25l6.51,20Zm-5.46-18L104.93,75h6.66Z"/><path class="cls-2" d="M128.51,82.24l-7.74-17.43V82.24h-1.95v-20h2.94l7.71,17.49V62.23h2v20Z"/><path class="cls-2" d="M139.31,82.24h-2.85v-20H140c6.21,0,9,3.9,9,9.87C149.06,78.55,145.91,82.24,139.31,82.24Zm1.05-18.15h-1.77V80.38H140c5.1,0,6.87-3.66,6.87-8.28C146.84,67.78,145.25,64.09,140.36,64.09Z"/><path class="cls-2" d="M155.81,82.57a9,9,0,0,1-3.87-.78l.18-2.19a7,7,0,0,0,3.75,1.08,3.2,3.2,0,0,0,3.54-3.45c0-1.92-.93-2.88-3.09-4.47L155,71.83c-1.83-1.35-2.88-2.55-2.88-4.8,0-3.84,3.24-5.1,5.55-5.1a7.47,7.47,0,0,1,3.3.63l-.18,2a5.77,5.77,0,0,0-3-.78c-1.65,0-3.48.84-3.48,3.09,0,1.68.84,2.4,2.19,3.36l1.26.9c2.64,1.83,3.81,3.3,3.81,5.79C161.63,80.32,159.29,82.57,155.81,82.57Z"/><path class="cls-2" d="M176.63,82a10.81,10.81,0,0,1-3.45.54c-5.94,0-8.55-4.95-8.55-10.32s3-10.32,8.61-10.32a7.82,7.82,0,0,1,3.42.66l-.18,2.16a6,6,0,0,0-3.27-.9c-4.53,0-6.36,4.41-6.36,8.43s1.89,8.37,6.39,8.37a6.79,6.79,0,0,0,3.21-.69Z"/><path class="cls-2" d="M190.67,82.24l-1.62-5.43h-7.71l-1.65,5.43h-2.1l6.54-20h2.25l6.51,20Zm-5.46-18L181.85,75h6.66Z"/><path class="cls-2" d="M200.3,73.69h-2.46v8.55h-2.1v-20h4.08c3.75,0,6.24,1.77,6.24,5.73C206.06,71.53,203.87,73.69,200.3,73.69Zm-1-9.63h-1.5v7.8h1.89c2.73,0,4.11-1.11,4.11-3.9S202.19,64.06,199.34,64.06Z"/><path class="cls-2" d="M209.42,82.24v-20h8.79v1.86h-6.69V71h6.33v1.8h-6.33v7.62h7v1.86Z"/></g></g></svg>