<svg xmlns="http://www.w3.org/2000/svg" viewBox="0 0 308.66 308.66"><defs><style>.cls-1{fill:#006594;}.cls-2{fill:#fff;}</style></defs><title>Asset 10</title><g id="Layer_2" data-name="Layer 2"><g id="circles"><circle class="cls-1" cx="154.33" cy="154.33" r="154.33"/></g><g id="symbols"><path class="cls-2" d="M171.39,200a2.13,2.13,0,0,0-4.27,0v4.27a2.13,2.13,0,1,0,4.27,0Z"/><path class="cls-2" d="M169.26,223.5a2.13,2.13,0,0,0-2.13,2.13v8.53a2.13,2.13,0,1,0,4.27,0v-8.53A2.13,2.13,0,0,0,169.26,223.5Z"/><path class="cls-2" d="M179.93,174.44a2.13,2.13,0,1,0-4.27,0v4.27a2.13,2.13,0,1,0,4.27,0Z"/><path class="cls-2" d="M171.39,187.24a2.13,2.13,0,0,0-4.27,0v4.27a2.13,2.13,0,1,0,4.27,0Z"/><path class="cls-2" d="M171.39,212.84a2.13,2.13,0,0,0-4.27,0v4.27a2.13,2.13,0,1,0,4.27,0v-4.27Z"/><path class="cls-2" d="M179.93,187.24a2.13,2.13,0,0,0-4.27,0v4.27a2.13,2.13,0,1,0,4.27,0Z"/><path class="cls-2" d="M162.86,174.44a2.13,2.13,0,1,0-4.27,0v4.27a2.13,2.13,0,1,0,4.27,0Z"/><path class="cls-2" d="M171.39,174.44a2.13,2.13,0,1,0-4.27,0v4.27a2.13,2.13,0,1,0,4.27,0Z"/><path class="cls-2" d="M179.93,153.1v-4.27a2.13,2.13,0,1,0-4.27,0v4.27a2.13,2.13,0,1,0,4.27,0Z"/><path class="cls-2" d="M162.86,187.24a2.13,2.13,0,1,0-4.27,0v4.27a2.13,2.13,0,1,0,4.27,0Z"/><path class="cls-2" d="M188.46,148.84a2.13,2.13,0,1,0-4.27,0v4.27a2.13,2.13,0,1,0,4.27,0Z"/><path class="cls-2" d="M160.73,197.9a2.13,2.13,0,0,0-2.13,2.13v4.27a2.13,2.13,0,1,0,4.27,0V200A2.13,2.13,0,0,0,160.73,197.9Z"/><path class="cls-2" d="M197,212.84a2.13,2.13,0,0,0-4.27,0v4.27a2.13,2.13,0,1,0,4.27,0v-4.27Z"/><path class="cls-2" d="M194.86,223.5a2.13,2.13,0,0,0-2.13,2.13v8.53a2.13,2.13,0,1,0,4.27,0v-8.53A2.13,2.13,0,0,0,194.86,223.5Z"/><path class="cls-2" d="M203.39,197.9a2.13,2.13,0,0,0-2.13,2.13v4.27a2.13,2.13,0,1,0,4.27,0V200A2.13,2.13,0,0,0,203.39,197.9Z"/><path class="cls-2" d="M169.26,155.24a2.13,2.13,0,0,0,2.13-2.13v-9l21.33-5.33v35.67a2.14,2.14,0,0,0,1.38,2l15.68,5.88v22a2.13,2.13,0,0,0,4.27,0V180.84a2.14,2.14,0,0,0-1.38-2L197,173V131.77a2.13,2.13,0,1,0-4.27,0v2.6l-24,6a2.13,2.13,0,0,0-1.61,2.07V153.1A2.13,2.13,0,0,0,169.26,155.24Z"/><path class="cls-2" d="M205.53,187.24a2.13,2.13,0,0,0-4.27,0v4.27a2.13,2.13,0,1,0,4.27,0Z"/><path class="cls-2" d="M197,187.24a2.13,2.13,0,0,0-4.27,0v4.27a2.13,2.13,0,1,0,4.27,0Z"/><path class="cls-2" d="M179.93,212.84a2.13,2.13,0,0,0-4.27,0v4.27a2.13,2.13,0,1,0,4.27,0Z"/><path class="cls-2" d="M197,200a2.13,2.13,0,0,0-4.27,0v4.27a2.13,2.13,0,1,0,4.27,0Z"/><path class="cls-2" d="M177.79,223.5a2.13,2.13,0,0,0-2.13,2.13v8.53a2.13,2.13,0,1,0,4.27,0v-8.53A2.13,2.13,0,0,0,177.79,223.5Z"/><path class="cls-2" d="M179.93,200a2.13,2.13,0,0,0-4.27,0v4.27a2.13,2.13,0,1,0,4.27,0Z"/><path class="cls-2" d="M186.33,236.3a2.13,2.13,0,0,0,2.13-2.13V165.9a2.13,2.13,0,0,0-1.61-2.07l-34.13-8.53a2.13,2.13,0,0,0-2.65,2.07V204.3a2.13,2.13,0,0,0,4.27,0V160.1l29.87,7.47v66.6A2.13,2.13,0,0,0,186.33,236.3Z"/><path class="cls-2" d="M137.26,161.64a2.13,2.13,0,1,0-4.27,0v4.27a2.13,2.13,0,1,0,4.27,0Z"/><path class="cls-2" d="M137.26,148.84a2.13,2.13,0,0,0-4.27,0v4.27a2.13,2.13,0,1,0,4.27,0Z"/><path class="cls-2" d="M120.19,212.84a2.13,2.13,0,0,0-4.27,0v4.27a2.13,2.13,0,0,0,4.27,0v-4.27Z"/><path class="cls-2" d="M101,193.64a2.13,2.13,0,0,0,2.13-2.13V180.84h21.33v53.33a2.13,2.13,0,0,0,4.27,0V178.7a2.13,2.13,0,0,0-2.13-2.13H101a2.13,2.13,0,0,0-2.13,2.13v12.8A2.13,2.13,0,0,0,101,193.64Z"/><path class="cls-2" d="M124.46,161.64v4.27a2.13,2.13,0,1,0,4.27,0v-4.27a2.13,2.13,0,0,0-4.27,0Z"/><path class="cls-2" d="M137.26,136a2.13,2.13,0,0,0-4.27,0v4.27a2.13,2.13,0,0,0,4.27,0Z"/><path class="cls-2" d="M118.06,223.5a2.13,2.13,0,0,0-2.13,2.13v8.53a2.13,2.13,0,0,0,4.27,0v-8.53A2.13,2.13,0,0,0,118.06,223.5Z"/><path class="cls-2" d="M216.19,240.57h-4.27v-13.1a8.53,8.53,0,1,0-4.27,0v13.1H154.33v-8.75a10.67,10.67,0,1,0-4.27,0v8.75H103.13V219a10.67,10.67,0,1,0-4.27,0v21.55h-6.4a2.13,2.13,0,0,0,0,4.27H216.19a2.13,2.13,0,0,0,0-4.27Zm-121.6-32A6.4,6.4,0,1,1,101,215,6.41,6.41,0,0,1,94.59,208.57Zm51.2,12.8a6.4,6.4,0,1,1,6.4,6.4A6.41,6.41,0,0,1,145.79,221.37Zm59.73-2.13a4.27,4.27,0,1,1,4.27,4.27A4.27,4.27,0,0,1,205.53,219.24Z"/><path class="cls-2" d="M107.39,225.64v8.53a2.13,2.13,0,0,0,4.27,0v-8.53a2.13,2.13,0,0,0-4.27,0Z"/><path class="cls-2" d="M120.19,187.24a2.13,2.13,0,0,0-4.27,0v4.27a2.13,2.13,0,0,0,4.27,0Z"/><path class="cls-2" d="M120.19,200a2.13,2.13,0,0,0-4.27,0v4.27a2.13,2.13,0,0,0,4.27,0Z"/><path class="cls-2" d="M107.39,187.24v4.27a2.13,2.13,0,0,0,4.27,0v-4.27a2.13,2.13,0,0,0-4.27,0Z"/><path class="cls-2" d="M137.26,200a2.13,2.13,0,0,0-4.27,0v4.27a2.13,2.13,0,0,0,4.27,0Z"/><path class="cls-2" d="M145.79,174.44a2.13,2.13,0,0,0-4.27,0v4.27a2.13,2.13,0,1,0,4.27,0Z"/><path class="cls-2" d="M145.79,161.64a2.13,2.13,0,0,0-4.27,0v4.27a2.13,2.13,0,1,0,4.27,0Z"/><path class="cls-2" d="M145.79,187.24a2.13,2.13,0,0,0-4.27,0v4.27a2.13,2.13,0,0,0,4.27,0Z"/><path class="cls-2" d="M143.66,197.9a2.13,2.13,0,0,0-2.13,2.13v4.27a2.13,2.13,0,0,0,4.27,0V200A2.13,2.13,0,0,0,143.66,197.9Z"/><path class="cls-2" d="M145.79,148.84a2.13,2.13,0,0,0-4.27,0v4.27a2.13,2.13,0,1,0,4.27,0Z"/><path class="cls-2" d="M137.26,212.84a2.13,2.13,0,0,0-4.27,0v4.27a2.13,2.13,0,0,0,4.27,0Z"/><path class="cls-2" d="M118.06,172.3a2.13,2.13,0,0,0,2.13-2.13V154.42l7.35-3.68a2.14,2.14,0,0,0,1.18-1.91V131l10.67-5.33L150.06,131v17.88a2.13,2.13,0,0,0,4.27,0v-19.2a2.14,2.14,0,0,0-1.18-1.91l-11.62-5.81V119a2.13,2.13,0,0,0-4.27,0v2.95l-11.62,5.81a2.14,2.14,0,0,0-1.18,1.91v17.88l-7.35,3.68a2.14,2.14,0,0,0-1.18,1.91v17.07A2.13,2.13,0,0,0,118.06,172.3Z"/><path class="cls-2" d="M137.26,187.24a2.13,2.13,0,0,0-4.27,0v4.27a2.13,2.13,0,0,0,4.27,0Z"/><path class="cls-2" d="M135.13,223.5a2.13,2.13,0,0,0-2.13,2.13v8.53a2.13,2.13,0,0,0,4.27,0v-8.53A2.13,2.13,0,0,0,135.13,223.5Z"/><path class="cls-2" d="M145.79,136a2.13,2.13,0,0,0-4.27,0v4.27a2.13,2.13,0,0,0,4.27,0Z"/><path class="cls-2" d="M137.26,174.44a2.13,2.13,0,0,0-4.27,0v4.27a2.13,2.13,0,1,0,4.27,0Z"/></g><g id="outlined_text" data-name="outlined text"><path class="cls-2" d="M128.81,62c0,4-1.47,7.59-6,7.59-4.8,0-6-3.42-6-7.59V49.23h2.13V62.07c0,2.76.39,5.67,3.84,5.67s3.9-2.91,3.9-5.67V49.23h2.13Z"/><path class="cls-2" d="M142.76,69.24l-2.37-6.75c-.48-1.35-1-2.43-2.52-2.43h-2.19v9.18h-2.1v-20h4.95c3.15,0,5.37,2,5.37,5.16A4.49,4.49,0,0,1,140,59.22c1.17.21,1.62.81,2.07,2l3,8Zm-4.83-18.18h-2.25v7.17H138c2.49,0,3.66-1.29,3.66-3.69S140.21,51.06,137.93,51.06Z"/><path class="cls-2" d="M152.75,69.24h-4.47v-20h4.89c3.12,0,5.31,1.89,5.31,5.07a4.39,4.39,0,0,1-3.24,4.5c2.43.48,3.72,2.43,3.72,4.92C159,67.65,156.44,69.24,152.75,69.24Zm.12-18.18h-2.49v7h2.46c2.25,0,3.45-1.44,3.45-3.63S155,51.06,152.87,51.06Zm.18,8.7h-2.67v7.65H153c2.49,0,3.78-1.17,3.78-3.72S155.48,59.76,153.05,59.76Z"/><path class="cls-2" d="M173.93,69.24l-1.62-5.43H164.6L163,69.24h-2.1l6.54-20h2.25l6.51,20Zm-5.46-18L165.11,62h6.66Z"/><path class="cls-2" d="M188.69,69.24,181,51.81V69.24h-2v-20h2.94l7.71,17.49V49.23h2v20Z"/><path class="cls-2" d="M109.67,95.24V77.15l-5.52,18.09h-1.74L96.86,77.15V95.24H94.91v-20h3.3l5.16,17.25,5.13-17.25h3.27v20Z"/><path class="cls-2" d="M116.81,95.24v-20h2.13v20Z"/><path class="cls-2" d="M133.4,95.24l-4.68-9.09-4.62,9.09h-2.34l5.79-10.62-5.19-9.39h2.4l4.11,7.83L133,75.23h2.25L130,84.62l5.76,10.62Z"/><path class="cls-2" d="M138.62,95.24v-20h8.79v1.86h-6.69V84h6.33v1.8h-6.33v7.62h7v1.86Z"/><path class="cls-2" d="M154.46,95.24h-2.85v-20h3.57c6.21,0,9,3.9,9,9.87C164.21,91.55,161.06,95.24,154.46,95.24Zm1-18.15h-1.77V93.38h1.38c5.1,0,6.87-3.66,6.87-8.28C162,80.78,160.4,77.09,155.51,77.09Z"/><path class="cls-2" d="M167,86.9V85h5.91V86.9Z"/><path class="cls-2" d="M188.48,88c0,4-1.47,7.59-6,7.59-4.8,0-6-3.42-6-7.59V75.23h2.13V88.07c0,2.76.39,5.67,3.84,5.67s3.9-2.91,3.9-5.67V75.23h2.13Z"/><path class="cls-2" d="M196,95.57a9,9,0,0,1-3.87-.78l.18-2.19A7,7,0,0,0,196,93.68a3.2,3.2,0,0,0,3.54-3.45c0-1.92-.93-2.88-3.09-4.47l-1.29-.93c-1.83-1.35-2.88-2.55-2.88-4.8,0-3.84,3.24-5.1,5.55-5.1a7.49,7.49,0,0,1,3.3.63l-.18,2a5.77,5.77,0,0,0-3-.78c-1.65,0-3.48.84-3.48,3.09,0,1.68.84,2.4,2.19,3.36l1.26.9c2.64,1.83,3.81,3.3,3.81,5.79C201.8,93.32,199.46,95.57,196,95.57Z"/><path class="cls-2" d="M205.79,95.24v-20h8.79v1.86h-6.69V84h6.33v1.8h-6.33v7.62h7v1.86Z"/></g></g></svg>