<?xml version="1.0" encoding="utf-8"?>
<!-- Generator: Adobe Illustrator 21.1.0, SVG Export Plug-In . SVG Version: 6.00 Build 0)  -->
<svg version="1.1" id="Layer_1" xmlns="http://www.w3.org/2000/svg" xmlns:xlink="http://www.w3.org/1999/xlink" x="0px" y="0px"
	 viewBox="0 0 445.6 103.3" style="enable-background:new 0 0 445.6 103.3;" xml:space="preserve">
<style type="text/css">
	.st0{fill:#717073;}
</style>
<g>
	<path class="st0" d="M445,94.3c-0.1-2.2-0.2-7.7-0.1-16.2c0.1-9.3,0.4-15,0.7-17h-0.3l-0.7,0.1h-14.8h-0.4H429h-0.3h-0.3
		c0.2,3.7,0.4,8.4,0.5,14.3c0.1,6.7,0.1,12.2-0.1,16.3c-2.4,1.5-5.3,2.7-8.8,3.6c-3,0.7-6.2,1-9.5,1c-9.5,0-17.3-3.9-23.3-11.7
		c-5.2-6.8-7.8-15.7-7.8-26.9c0-12.3,2.8-21.7,8.4-28.4c5.7-6.7,13.9-10.1,24.5-10.1c8,0,14.4,1.6,19.3,4.9c2.9,2,5.1,4.4,6.5,7.2
		l3.9-12.6c-5-2.2-10-3.9-15-4.9c-4.7-1-9.8-1.5-15.1-1.5c-16.4,0-29.1,4.5-38,13.6c-4,4.1-7.1,9.1-9.2,14.8c-2,5.5-3,11.6-3,18.2
		c0,7,1.2,13.4,3.6,19.1c2.3,5.4,5.6,10.1,9.9,13.9c4.1,3.7,9,6.6,14.6,8.5c5.5,1.9,11.4,2.8,17.8,2.8c6.2,0,12.6-0.7,19.2-2.3
		C433.5,99.4,439.6,97.1,445,94.3L445,94.3z"/>
	<path class="st0" d="M284.6,21.8c0.2,6.6,0.3,11.4,0.3,14.2l0.1,36c0,4.1-0.1,9-0.5,14.7l-0.8,14.7c2.2-0.2,5.4-0.4,9.6-0.4
		c4,0,7,0.1,8.9,0.3l-0.8-14.7c-0.3-5.8-0.5-10.7-0.4-14.7V36.2c0-4,0.1-8.8,0.2-14.4c11.3,0,19.9,0.3,25.6,0.9
		c-0.1-1-0.2-2.6-0.2-4.7s0.1-3.7,0.2-4.8c-6.2,0.3-17.9,0.4-35.2,0.4c-17.3,0-28.5-0.1-33.6-0.4v0.1v0.2l0.1,0.2V14l0.1,0.5v0.3
		v0.3v1v0.3v2.9v0.3v1v0.3v0.3l-0.1,0.5v0.2l-0.1,0.2v0.3v0.1c2.8-0.3,6.8-0.5,12.1-0.7L284.6,21.8L284.6,21.8z"/>
	<path class="st0" d="M128.1,13.2c-0.9,0.2-2.9,0.3-6,0.3c-3-0.1-4.9-0.1-5.6-0.3l-10,33.8l-6.8,20.1c-0.9,2.7-2.4,6.7-4.4,11.8
		c-4.6-12.3-8.5-23.6-11.8-33.6c-0.8-2.3-2.7-8.4-5.7-18.3l-4.3-13.8c-0.8,0.2-2.7,0.3-5.7,0.2c-2.8,0-4.6-0.1-5.6-0.2
		c-1.6,6.6-5.1,17.6-10.4,33.1c-3.5,10.5-6.4,18.5-8.4,23.9l-3.2,8.3l-2.4-7.2C28,43.4,21.9,24,19.1,13.2c-1.4,0.2-4.7,0.3-9.8,0.3
		c-4.6-0.1-7.7-0.1-9.3-0.3c4.5,11.7,8.9,23.7,13.3,36c4.4,12.5,9.2,26.7,14.4,42.5l3.2,9.8c0.9-0.2,2.6-0.3,4.9-0.3
		c2.4-0.1,4.2,0.1,5.2,0.3c3.3-10.9,5.4-17.7,6.3-20.2c4.6-13.4,8.6-25.1,12.2-35l3.9-10.7l14.8,42.9c1.3,3.6,3.7,11.3,7.3,23l5-0.2
		c2.9,0,4.8,0.1,5.6,0.2C99.8,90.8,104,78.3,109,64C114.6,48,121,31,128.1,13.2L128.1,13.2z"/>
	<path class="st0" d="M192.5,0c-3.3,10-7.2,20.3-11.6,31.1c-3.8,9.3-9.2,21.7-16.1,37.2l-14.9,33.2c0.9-0.2,2.9-0.2,6-0.2
		s5.1,0.1,5.9,0.2c1.8-6.5,5.2-15.8,10.3-27.9l2.9-8l13.7-32.7L201,64.4l9,21.8l5.7,15.3c1.1-0.1,4.3-0.2,9.5-0.2
		c5.1,0,8.2,0,9.2,0.2c-3.5-7.6-9.9-22-19.2-43.1c-2.6-6.1-6.2-15-10.8-26.6C199.3,18.8,195.3,8.2,192.5,0L192.5,0z"/>
</g>
</svg>
