<?xml version="1.0" encoding="utf-8"?>
<!-- Generator: Adobe Illustrator 21.1.0, SVG Export Plug-In . SVG Version: 6.00 Build 0)  -->
<svg version="1.1" id="Layer_1" xmlns="http://www.w3.org/2000/svg" xmlns:xlink="http://www.w3.org/1999/xlink" x="0px" y="0px"
	 viewBox="0 0 372.5 227.1" style="enable-background:new 0 0 372.5 227.1;" xml:space="preserve">
<style type="text/css">
	.st0{fill:#FFFFFF;}
</style>
<g>
	<path class="st0" d="M159.8,58.6h-2l-9.3-40.2L139,58.6h-2l-10-42h1.6l9.5,40.4l9.7-40.4h1.6l9.5,40.4l9.6-40.4h1.5L159.8,58.6z"/>
	<path class="st0" d="M194.9,46.2h-18.5l-4.2,12.4h-1.4l14.1-42h1.5l14.1,42h-1.4L194.9,46.2z M176.8,44.9h17.7l-8.8-26.7
		L176.8,44.9z"/>
	<path class="st0" d="M209.8,17.9v40.8h-1.4V17.9h-10.3v-1.3h21.9v1.3H209.8z"/>
	<path class="st0" d="M224,37.6c0,11.8,5.2,20.4,14.6,20.4c4,0,6.4-1,8.3-2.1V38.3h-8.6V37h9.9v19.8c-2.3,1.4-5.4,2.5-9.6,2.5
		c-10.3,0-15.9-9.1-15.9-21.7c0-12.6,6-21.7,16.3-21.7c3.2,0,5.9,0.7,8.4,2l-0.2,1.4c-2.5-1.4-5.3-2.1-8.3-2.1
		C229.4,17.2,224,25.7,224,37.6z"/>
	<path class="st0" d="M109,110.2v-42h6.4c13.4,0,19,8,19,20.6c0,13.3-7,21.4-19.3,21.4H109z M112.5,106.9h2.8
		c11.2,0,15.4-8.1,15.4-18.1c0-9.6-4-17.3-14.5-17.3h-3.7V106.9z"/>
	<path class="st0" d="M143.1,110.2v-42h17.5v3.3h-14v15.3H160v3.2h-13.3v17h14.7v3.3H143.1z"/>
	<path class="st0" d="M167.1,105.2c2.8,1.7,5.7,2.3,7.7,2.3c5,0,8.1-2.7,8.1-8c0-4.2-2.1-6.2-6.6-9.4l-2.3-1.6
		c-4.2-3-6.2-5.5-6.2-10c0-8.5,7-10.9,11.2-10.9c2.5,0,4.7,0.4,6.7,1.2l-0.4,3.8c-2-1.1-4.3-1.6-6.6-1.6c-3.3,0-7.2,2.1-7.2,7.1
		c0,3.8,2.1,5.5,5.1,7.7l2.3,1.6c4.9,3.3,7.9,6.3,7.9,11.8c0,8-5.5,11.8-11.8,11.8c-2.7,0-5.6-0.5-8.2-1.7L167.1,105.2z"/>
	<path class="st0" d="M195.2,110.2v-42h3.5v42H195.2z"/>
	<path class="st0" d="M234.5,108.5c-3,1.7-6,2.4-9.3,2.4c-12.7,0-17.8-10.8-17.8-21.7c0-10.7,5.9-21.7,17.6-21.7
		c2.8,0,6.1,0.7,8.7,2.1l-0.4,4c-2.3-1.7-6-2.7-8.7-2.7c-9.8,0-13.5,9.9-13.5,18.3c0,8.9,4,18.3,14.3,18.3c2.1,0,3.9-0.4,5.7-1.4
		V91.2h-7.5v-3.3h10.9V108.5z"/>
	<path class="st0" d="M243.8,110.2v-42h5l17.2,37.7V68.2h3.4v42h-5l-17.2-37.6v37.6H243.8z"/>
	<path class="st0" d="M117.9,149.4H99.4l-4.2,12.4h-1.4l14.1-42h1.5l14,42h-1.4L117.9,149.4z M99.8,148.1h17.7l-8.8-26.7L99.8,148.1
		z"/>
	<path class="st0" d="M157.1,161.8h-2l-9.3-40.2l-9.6,40.2h-2l-10-42h1.6l9.5,40.4l9.7-40.4h1.6l9.5,40.4l9.6-40.4h1.5L157.1,161.8z
		"/>
	<path class="st0" d="M192.2,149.4h-18.5l-4.2,12.4h-1.4l14.1-42h1.5l14,42h-1.4L192.2,149.4z M174.1,148.1h17.7l-8.8-26.7
		L174.1,148.1z"/>
	<path class="st0" d="M219,144.7l7,17.1h-1.5l-6.6-16.6c-1.2-3.1-3.4-4.8-7.4-4.8h-5v21.4h-1.4v-42h6.4c8.5,0,12.7,3.1,12.7,10.2
		c0,5.8-3.3,9.4-9.3,10.1C216.2,140.5,217.8,141.6,219,144.7z M211.5,139.2c6.3,0,10.4-2.8,10.4-9.2c0-6.4-3.8-8.9-11.3-8.9h-5v18.1
		H211.5z"/>
	<path class="st0" d="M240.3,161.8h-6.7v-42h7.1c11.3,0,17.3,7.6,17.3,21C257.8,154.4,251.5,161.8,240.3,161.8z M240.6,121h-5.7
		v39.5h5.4c10.3,0,16.1-6.9,16.1-19.7C256.4,128,251.1,121,240.6,121z"/>
	<path class="st0" d="M271.7,162.5c-2.7,0-5-0.3-7.4-1.5l0.2-1.4c2.3,1.2,4.5,1.6,7.2,1.6c5,0,9-2.8,9-9.5c0-4.7-2-7.3-6.2-10.4
		l-3.7-2.7c-4-3-6.2-5.7-6.2-10c0-6,4.5-9.5,9.8-9.5c2.8,0,4.7,0.5,6.7,1.4l-0.2,1.4c-2-1-4-1.6-6.6-1.6c-4.7,0-8.4,2.9-8.4,8.3
		c0,3.8,1.8,6,5.8,9l3.7,2.7c4.3,3.1,6.7,6.1,6.7,11.3C282.1,159,277.4,162.5,271.7,162.5z"/>
</g>
<g>
	<rect x="104.9" y="177.6" class="st0" width="167" height="1"/>
</g>
<g>
	<path class="st0" d="M148.6,225.1v-2.2l6.9-7.6c3.8-4.2,7-7.8,7-12.2c0-3.6-2.4-5.3-5.6-5.3c-2.6,0-4.7,0.7-6.9,1.9l-0.3-2.6
		c2.2-1.1,4.7-1.8,7.2-1.8c4.8,0,8.4,2.4,8.4,7.6c0,5.1-3.4,9.1-7.9,13.9l-5.5,6H166v2.4H148.6z"/>
	<path class="st0" d="M167.3,210.5c0-6.3,1.6-15.1,9.5-15.1c8,0,9.5,8.9,9.5,15.1c0,6.3-1.6,15.1-9.5,15.1c-2.1,0-3.7-0.5-5-1.5
		C168.1,221.4,167.3,215.3,167.3,210.5z M176.9,223.1c6.2,0,6.8-8.2,6.8-12.7c0-4.5-0.5-12.7-6.8-12.7c-6.2,0-6.8,8.2-6.8,12.7
		c0,2.3,0.1,5.5,1,8.1C172,221.1,173.7,223.1,176.9,223.1z"/>
	<path class="st0" d="M195.6,225.1v-26.3l-4.7,4.1l-1.5-1.7l6.5-5.5h2.4v29.4H195.6z"/>
	<path class="st0" d="M208.8,225.1l11.7-27h-15.1v-2.4h17.7v2.3l-11.4,27.1H208.8z"/>
</g>
<g>
	<g>
		<path class="st0" d="M88,216.6l-0.1,0.2c-0.5,0.7-2.6,0-3.3-0.5c-13.3-9-27.9-21.9-36.3-35.6C13.6,127.9,27.1,61.1,48.6,32
			C13.9,89.3,25.5,176.4,86.9,214C87.6,214.4,88.4,215.9,88,216.6z"/>
		<path class="st0" d="M27.1,201.2c15.7-2.6,30.4-3,43.3,7.3C63,220.9,36.1,215,27.1,201.2z"/>
		<path class="st0" d="M51.6,189.5c-13.1,7.3-30.6,0.3-39.1-15.5C25.9,171.1,45.3,178.8,51.6,189.5z"/>
		<path class="st0" d="M3.9,142.1c14,4.4,27.1,9.4,34,24C23.8,171.2,4.3,157.2,3.9,142.1z"/>
		<path class="st0" d="M28.6,140.6C14.1,142.1,1.4,128.4,0,109.9C13.3,117,24.7,124.7,28.6,140.6z"/>
		<path class="st0" d="M3.9,78.8c10.8,9.9,20.3,19.3,20.3,34.6C10.2,111.8,0.6,95.6,3.9,78.8z"/>
		<path class="st0" d="M75.5,203.3c-10.1-9.7-9.1-25,2.2-37C84,175.4,83.1,193.5,75.5,203.3z"/>
		<path class="st0" d="M13,49.5c8.7,11.3,15.1,22.2,12.5,36.4C13.4,84.8,6.5,65.7,13,49.5z"/>
		<path class="st0" d="M66.7,149.6c3.9,12.1,0.1,27.6-8.6,34.6C49.5,173.9,53.5,157.7,66.7,149.6z"/>
		<path class="st0" d="M26.7,23.3c8.4,11.6,10.1,28.5,4,37.2C20.1,53,18.5,38.8,26.7,23.3z"/>
		<path class="st0" d="M59.3,129.5c0.1,13.7-3.4,24.9-13.6,33.5C37.4,153.4,43.5,137.8,59.3,129.5z"/>
		<path class="st0" d="M42,36.3c-8.7-10.2-7-24.8,4-36.3C51.8,9.9,50,27.5,42,36.3z"/>
		<path class="st0" d="M35.8,138.4c-5-11.1,3.2-24.3,18.2-29.2C55.3,120,46.4,134.3,35.8,138.4z"/>
		<path class="st0" d="M55.2,88.6c-4.5,11.6-10.9,20.8-23.2,24.8C28.9,100.9,40.7,88.2,55.2,88.6z"/>
		<path class="st0" d="M59.4,67.3c-6.1,11.1-13.9,18.5-26,20.8C30.8,76.6,42.7,66.9,59.4,67.3z"/>
		<path class="st0" d="M38.6,63c1-11.7,14.3-19.1,27.8-15.3C61.3,57.6,49.4,64.2,38.6,63z"/>
		<path class="st0" d="M55,23.6C53.8,11.8,63.2,2.2,76.7,0.9C75.1,12.2,65.8,22.2,55,23.6z"/>
		<path class="st0" d="M48.9,40c3.4-11.3,15-15.6,29.3-11.2C74.1,37.4,60.6,42.6,48.9,40z"/>
	</g>
	<g>
		<path class="st0" d="M284.5,216.6l0.1,0.2c0.5,0.7,2.6,0,3.3-0.5c13.3-9,27.9-21.9,36.3-35.6c34.7-52.8,21.2-119.6-0.4-148.7
			C358.6,89.3,347,176.4,285.5,214C284.9,214.4,284,215.9,284.5,216.6z"/>
		<path class="st0" d="M345.3,201.2c-15.7-2.6-30.4-3-43.3,7.3C309.4,220.9,336.4,215,345.3,201.2z"/>
		<path class="st0" d="M320.9,189.5c13.1,7.3,30.6,0.3,39.1-15.5C346.5,171.1,327.1,178.8,320.9,189.5z"/>
		<path class="st0" d="M368.5,142.1c-14,4.4-27.1,9.4-34,24C348.6,171.2,368.1,157.2,368.5,142.1z"/>
		<path class="st0" d="M343.8,140.6c14.6,1.5,27.2-12.2,28.6-30.7C359.2,117,347.7,124.7,343.8,140.6z"/>
		<path class="st0" d="M368.6,78.8c-10.8,9.9-20.3,19.3-20.3,34.6C362.2,111.8,371.8,95.6,368.6,78.8z"/>
		<path class="st0" d="M297,203.3c10.1-9.7,9.1-25-2.2-37C288.5,175.4,289.4,193.5,297,203.3z"/>
		<path class="st0" d="M359.5,49.5c-8.7,11.3-15.1,22.2-12.5,36.4C359.1,84.8,366,65.7,359.5,49.5z"/>
		<path class="st0" d="M305.8,149.6c-3.9,12.1-0.1,27.6,8.6,34.6C322.9,173.9,318.9,157.7,305.8,149.6z"/>
		<path class="st0" d="M345.7,23.3c-8.4,11.6-10.1,28.5-4,37.2C352.3,53,354,38.8,345.7,23.3z"/>
		<path class="st0" d="M313.2,129.5c-0.1,13.7,3.4,24.9,13.6,33.5C335,153.4,329,137.8,313.2,129.5z"/>
		<path class="st0" d="M330.4,36.3c8.7-10.2,7-24.8-4-36.3C320.7,9.9,322.5,27.5,330.4,36.3z"/>
		<path class="st0" d="M336.6,138.4c5-11.1-3.2-24.3-18.2-29.2C317.2,120,326,134.3,336.6,138.4z"/>
		<path class="st0" d="M317.2,88.6c4.5,11.6,10.9,20.8,23.2,24.8C343.6,100.9,331.7,88.2,317.2,88.6z"/>
		<path class="st0" d="M313.1,67.3c6.1,11.1,13.9,18.5,26,20.8C341.7,76.6,329.8,66.9,313.1,67.3z"/>
		<path class="st0" d="M333.8,63c-1-11.7-14.3-19.1-27.8-15.3C311.2,57.6,323.1,64.2,333.8,63z"/>
		<path class="st0" d="M317.4,23.6c1.2-11.8-8.1-21.4-21.6-22.8C297.3,12.2,306.7,22.2,317.4,23.6z"/>
		<path class="st0" d="M323.5,40c-3.4-11.3-15-15.6-29.3-11.2C298.4,37.4,311.8,42.6,323.5,40z"/>
	</g>
</g>
</svg>
