<?xml version="1.0" encoding="utf-8"?>
<!-- Generator: Adobe Illustrator 21.1.0, SVG Export Plug-In . SVG Version: 6.00 Build 0)  -->
<svg version="1.1" id="Layer_1" xmlns="http://www.w3.org/2000/svg" xmlns:xlink="http://www.w3.org/1999/xlink" x="0px" y="0px"
	 viewBox="0 0 372.5 217.1" style="enable-background:new 0 0 372.5 217.1;" xml:space="preserve">
<style type="text/css">
	.st0{fill:#FFFFFF;}
</style>
<title>logo-small</title>
<g id="Layer_2">
	<g id="crown">
		<path class="st0" d="M88,216.6l-0.1,0.2c-0.4,0.7-2.6,0-3.3-0.5c-13.3-9-27.9-21.9-36.3-35.6C13.6,127.9,27.1,61.1,48.6,32
			C13.9,89.3,25.5,176.4,86.9,214C87.6,214.4,88.4,215.9,88,216.6z"/>
		<path class="st0" d="M27.1,201.2c15.7-2.6,30.4-3,43.3,7.3C63,220.9,36,215,27.1,201.2z"/>
		<path class="st0" d="M51.6,189.5c-13.1,7.3-30.6,0.4-39.1-15.5C25.9,171.1,45.3,178.8,51.6,189.5z"/>
		<path class="st0" d="M3.9,142.1c14,4.4,27.1,9.4,34,24C23.8,171.3,4.3,157.2,3.9,142.1z"/>
		<path class="st0" d="M28.6,140.6C14.1,142.1,1.4,128.4,0,109.9C13.3,117,24.7,124.7,28.6,140.6z"/>
		<path class="st0" d="M3.9,78.8c10.8,9.9,20.3,19.3,20.3,34.6C10.2,111.8,0.6,95.6,3.9,78.8z"/>
		<path class="st0" d="M75.5,203.3c-10.1-9.7-9.1-25,2.2-37C84,175.4,83.1,193.5,75.5,203.3z"/>
		<path class="st0" d="M13,49.5c8.6,11.4,15.1,22.3,12.5,36.4C13.4,84.8,6.5,65.7,13,49.5z"/>
		<path class="st0" d="M66.7,149.6c3.9,12.1,0.1,27.6-8.6,34.6C49.5,173.9,53.5,157.7,66.7,149.6z"/>
		<path class="st0" d="M26.8,23.3c8.4,11.6,10.1,28.5,4,37.2C20.1,53,18.5,38.8,26.8,23.3z"/>
		<path class="st0" d="M59.3,129.5c0.1,13.7-3.4,24.9-13.6,33.5C37.4,153.4,43.5,137.8,59.3,129.5z"/>
		<path class="st0" d="M42,36.3C33.3,26.1,35,11.6,46,0C51.8,9.9,50,27.5,42,36.3z"/>
		<path class="st0" d="M35.8,138.4c-5-11.2,3.3-24.3,18.2-29.2C55.3,120,46.4,134.3,35.8,138.4z"/>
		<path class="st0" d="M55.2,88.6c-4.5,11.6-10.8,20.8-23.2,24.8C28.9,100.9,40.7,88.2,55.2,88.6z"/>
		<path class="st0" d="M59.4,67.3c-6,11.1-13.9,18.5-26,20.8C30.8,76.6,42.7,66.9,59.4,67.3z"/>
		<path class="st0" d="M38.6,63c1-11.7,14.3-19,27.8-15.3C61.3,57.6,49.4,64.2,38.6,63z"/>
		<path class="st0" d="M55,23.6C53.8,11.8,63.2,2.2,76.7,0.9C75.1,12.2,65.8,22.2,55,23.6z"/>
		<path class="st0" d="M48.9,40c3.4-11.3,15-15.6,29.3-11.2C74.1,37.3,60.6,42.6,48.9,40z"/>
		<path class="st0" d="M284.5,216.6l0.1,0.2c0.5,0.7,2.6,0,3.3-0.5c13.3-9,27.9-21.9,36.3-35.6c34.7-52.8,21.2-119.6-0.4-148.7
			c34.7,57.3,23.2,144.4-38.3,182C284.9,214.4,284,215.9,284.5,216.6z"/>
		<path class="st0" d="M345.4,201.2c-15.7-2.6-30.4-3-43.3,7.3C309.4,220.9,336.4,215,345.4,201.2z"/>
		<path class="st0" d="M320.9,189.5c13.1,7.3,30.6,0.4,39.1-15.5C346.5,171.1,327.1,178.8,320.9,189.5z"/>
		<path class="st0" d="M368.5,142.1c-14,4.4-27.1,9.4-34,24C348.6,171.3,368.1,157.2,368.5,142.1z"/>
		<path class="st0" d="M343.8,140.6c14.6,1.5,27.2-12.2,28.6-30.7C359.2,117,347.7,124.7,343.8,140.6z"/>
		<path class="st0" d="M368.6,78.8c-10.8,9.9-20.3,19.3-20.3,34.6C362.2,111.8,371.8,95.6,368.6,78.8z"/>
		<path class="st0" d="M297,203.3c10.1-9.7,9.1-25-2.1-37C288.5,175.4,289.4,193.5,297,203.3z"/>
		<path class="st0" d="M359.5,49.5c-8.7,11.4-15.1,22.3-12.5,36.4C359.1,84.8,366,65.7,359.5,49.5z"/>
		<path class="st0" d="M305.8,149.6c-3.9,12.1-0.1,27.6,8.6,34.6C322.9,173.9,318.9,157.7,305.8,149.6z"/>
		<path class="st0" d="M345.7,23.3c-8.4,11.6-10.1,28.5-4,37.2C352.3,53,354,38.8,345.7,23.3z"/>
		<path class="st0" d="M313.1,129.5c-0.1,13.7,3.4,24.9,13.6,33.5C335,153.4,329,137.8,313.1,129.5z"/>
		<path class="st0" d="M330.4,36.3c8.7-10.2,7-24.8-4-36.3C320.7,9.9,322.5,27.5,330.4,36.3z"/>
		<path class="st0" d="M336.6,138.4c5-11.2-3.3-24.3-18.2-29.2C317.2,120,326,134.3,336.6,138.4z"/>
		<path class="st0" d="M317.2,88.6c4.5,11.6,10.9,20.8,23.2,24.8C343.6,100.9,331.7,88.2,317.2,88.6z"/>
		<path class="st0" d="M313.1,67.3c6,11.1,13.9,18.5,26,20.8C341.7,76.6,329.8,66.9,313.1,67.3z"/>
		<path class="st0" d="M333.9,63c-1-11.7-14.3-19-27.8-15.3C311.1,57.6,323.1,64.2,333.9,63z"/>
		<path class="st0" d="M317.4,23.6c1.2-11.8-8.1-21.4-21.6-22.8C297.3,12.2,306.7,22.2,317.4,23.6z"/>
		<path class="st0" d="M323.5,40c-3.4-11.3-15-15.6-29.3-11.2C298.4,37.3,311.8,42.6,323.5,40z"/>
		<path class="st0" d="M285.1,52c-1.4,0.4-4.3,0.5-9,0.5c-2.8,0.1-5.7-0.1-8.5-0.5l-15,50.6l-10.3,30.1c-1.4,4.1-3.7,10-6.6,17.7
			c-6.9-18.5-12.8-35.3-17.7-50.3c-1.2-3.5-4-12.6-8.6-27.4L203,52c-2.8,0.4-5.7,0.5-8.5,0.4c-2.8,0-5.6-0.1-8.4-0.4
			c-2.5,10-7.6,26.4-15.6,49.5c-5.3,15.8-9.6,27.7-12.6,35.8l-4.8,12.5l-3.7-10.8c-14.1-41.9-23.3-70.9-27.5-87
			c-2.2,0.4-7.1,0.5-14.7,0.5c-7-0.1-11.6-0.2-13.9-0.5c6.7,17.6,13.4,35.5,19.9,53.9c6.7,18.8,13.9,40,21.6,63.6l4.8,14.7
			c2.4-0.4,4.9-0.5,7.4-0.5c2.6-0.1,5.3,0,7.9,0.5c5-16.4,8.2-26.5,9.4-30.3c6.9-20.1,12.9-37.6,18.3-52.3l5.8-16l22.1,64.2
			c1.9,5.5,5.6,17,11,34.5l7.6-0.3c2.8-0.1,5.6,0,8.4,0.3c5.2-16.1,11.4-34.8,18.9-56.1C264.8,104.1,274.4,78.7,285.1,52L285.1,52z"
			/>
	</g>
</g>
</svg>
