<svg xmlns="http://www.w3.org/2000/svg" viewBox="0 0 308.66 308.66"><defs><style>.cls-1{fill:#006594;}.cls-2{fill:#fff;}</style></defs><title>Asset 13</title><g id="Layer_2" data-name="Layer 2"><g id="circles"><circle class="cls-1" cx="154.33" cy="154.33" r="154.33"/></g><g id="symbols"><path class="cls-2" d="M218.32,118.75s0-.09,0-.14a1.92,1.92,0,0,0-.09-.39l0,0s0-.08-.07-.13l-.1-.19a2.32,2.32,0,0,0-.2-.28s0-.06-.05-.09-.07,0-.1-.07l-.08-.09,0,0h0l0,0a1.93,1.93,0,0,0-.34-.19L217,117l-.17-.05-.21,0a2.37,2.37,0,0,0-.32-.05h-.42a2,2,0,0,0-.31.08l-.21.07-.14.05L95.75,178.93c-3.52,1.82-5.49,4.58-5.41,7.55s2.09,5.41,5.55,7l23,9.88a2.13,2.13,0,1,0,1.68-3.92l-23-9.86c-1.88-.85-3-2-3-3.18s1.13-2.62,3.11-3.65l106.18-55-78.76,75v0a2.1,2.1,0,0,0-.34.48c0,.07-.1.13-.14.2a2.07,2.07,0,0,0,0,.23,2.1,2.1,0,0,0-.12.59v38.42a2.19,2.19,0,0,0,.09.6v0a2.17,2.17,0,0,0,.34.65,1.65,1.65,0,0,0,.14.16,2.06,2.06,0,0,0,.44.36s.07.07.11.09l.11,0,.08,0,.09,0a2.12,2.12,0,0,0,.72.14h0a2.15,2.15,0,0,0,.71-.14l.17-.07a2.13,2.13,0,0,0,.58-.38l0,0,0,0h0l21.31-21.31a2.13,2.13,0,1,0-3-3L135.23,231l10.23-19.19,66.77-84.44L192.44,221a5.21,5.21,0,0,1-2.42,3.74,5.82,5.82,0,0,1-4.94-.11l-32.92-12.88a2.13,2.13,0,1,0-1.55,4l32.9,12.87a11.89,11.89,0,0,0,4.41.9,8.65,8.65,0,0,0,4.13-1,9.42,9.42,0,0,0,4.58-6.63L218.29,119.4a2.14,2.14,0,0,0,0-.26,1.8,1.8,0,0,0,0-.22A1.64,1.64,0,0,0,218.32,118.75ZM142,209.37a1.2,1.2,0,0,0-.08.17c0,.06-.09.09-.13.15l-13,24.47v-29l67-63.83Z"/></g><g id="outlined_text" data-name="outlined text"><path class="cls-2" d="M89.92,69.24v-20H92v20Z"/><path class="cls-2" d="M106.75,69.24,99,51.81V69.24H97.06v-20H100l7.71,17.49V49.23h2v20Z"/><path class="cls-2" d="M124.39,69.24l-7.74-17.43V69.24h-2v-20h2.94l7.71,17.49V49.23h2v20Z"/><path class="cls-2" d="M138.43,69.57c-5.79,0-7.08-5.67-7.08-10.32s1.56-10.32,7.08-10.32c5.85,0,7.08,5.67,7.08,10.32S143.95,69.57,138.43,69.57Zm0-18.78c-4.23,0-4.86,5.16-4.86,8.46,0,3.51.63,8.46,4.86,8.46s4.86-5.13,4.86-8.46S142.81,50.79,138.43,50.79Z"/><path class="cls-2" d="M155.44,69.24h-2.31l-5.79-20h2.25l4.77,17.61,4.71-17.61h2.1Z"/><path class="cls-2" d="M173.44,69.24l-1.62-5.43h-7.71l-1.65,5.43h-2.1l6.54-20h2.25l6.51,20Zm-5.46-18L164.62,62h6.66Z"/><path class="cls-2" d="M181.9,51.09V69.24h-2.13V51.09h-4.5V49.23h11.1v1.86Z"/><path class="cls-2" d="M189.25,69.24v-20h2.13v20Z"/><path class="cls-2" d="M202.27,69.24H200l-5.79-20h2.25l4.77,17.61,4.71-17.61H208Z"/><path class="cls-2" d="M210.79,69.24v-20h8.79v1.86h-6.69V58h6.33v1.8h-6.33v7.62h7v1.86Z"/><path class="cls-2" d="M55.93,95.24H53.08v-20h3.57c6.21,0,9,3.9,9,9.87C65.68,91.55,62.53,95.24,55.93,95.24Zm1-18.15H55.21V93.38h1.38c5.1,0,6.87-3.66,6.87-8.28C63.46,80.78,61.87,77.09,57,77.09Z"/><path class="cls-2" d="M69.7,95.24v-20h8.79v1.86H71.8V84h6.33v1.8H71.8v7.62h7v1.86Z"/><path class="cls-2" d="M85.42,95.57a9,9,0,0,1-3.87-.78l.18-2.19a6.94,6.94,0,0,0,3.75,1.08A3.2,3.2,0,0,0,89,90.23c0-1.92-.93-2.88-3.09-4.47l-1.29-.93c-1.83-1.35-2.88-2.55-2.88-4.8,0-3.84,3.24-5.1,5.55-5.1a7.48,7.48,0,0,1,3.3.63l-.18,2a5.77,5.77,0,0,0-3-.78c-1.65,0-3.48.84-3.48,3.09,0,1.68.84,2.4,2.19,3.36l1.26.9c2.64,1.83,3.81,3.3,3.81,5.79C91.24,93.32,88.9,95.57,85.42,95.57Z"/><path class="cls-2" d="M95.23,95.24v-20h2.13v20Z"/><path class="cls-2" d="M114.67,94.43A9.75,9.75,0,0,1,110,95.57c-6.06,0-8.58-5-8.58-10.32s3-10.32,8.64-10.32a9.67,9.67,0,0,1,4.26,1l-.18,2.16a7.59,7.59,0,0,0-4.2-1.26c-4.5,0-6.3,4.44-6.3,8.43s1.77,8.43,6.51,8.43a4.89,4.89,0,0,0,2.52-.6V86.3h-3.39V84.5h5.43Z"/><path class="cls-2" d="M128.68,95.24l-7.74-17.43V95.24h-2v-20h2.94l7.71,17.49V75.23h2v20Z"/><path class="cls-2" d="M143.08,95.24h-1.74l5-20h1.74Z"/><path class="cls-2" d="M160.66,95.24h-2.85v-20h3.57c6.21,0,9,3.9,9,9.87C170.41,91.55,167.26,95.24,160.66,95.24Zm1-18.15h-1.77V93.38h1.38c5.1,0,6.87-3.66,6.87-8.28C168.19,80.78,166.6,77.09,161.71,77.09Z"/><path class="cls-2" d="M174.43,95.24v-20h8.79v1.86h-6.69V84h6.33v1.8h-6.33v7.62h7v1.86Z"/><path class="cls-2" d="M187.42,95.24v-20h2.13V93.38h6.36v1.86Z"/><path class="cls-2" d="M199,95.24v-20h2.13v20Z"/><path class="cls-2" d="M212,95.24h-2.31l-5.79-20h2.25l4.77,17.61,4.71-17.61h2.1Z"/><path class="cls-2" d="M220.51,95.24v-20h8.79v1.86h-6.69V84h6.33v1.8h-6.33v7.62h7v1.86Z"/><path class="cls-2" d="M242.68,95.24l-2.37-6.75c-.48-1.35-1-2.43-2.52-2.43H235.6v9.18h-2.1v-20h5c3.15,0,5.37,1.95,5.37,5.16a4.49,4.49,0,0,1-3.93,4.83c1.17.21,1.62.81,2.07,2l3,8Zm-4.83-18.18H235.6v7.17h2.34c2.49,0,3.66-1.29,3.66-3.69S240.13,77.06,237.85,77.06Z"/><path class="cls-2" d="M253,86.66v8.58h-2.13V86.66l-5.13-11.43H248L252,84.77l3.9-9.54h2.19Z"/></g></g></svg>