<svg xmlns="http://www.w3.org/2000/svg" viewBox="0 0 308.66 308.66"><defs><style>.cls-1{fill:#006594;}.cls-2{fill:#fff;}</style></defs><title>Asset 9</title><g id="Layer_2" data-name="Layer 2"><g id="circles"><circle class="cls-1" cx="154.33" cy="154.33" r="154.33"/></g><g id="symbols"><path class="cls-2" d="M175.66,180.84H133a6.4,6.4,0,1,0,0,12.8h12.8a2.13,2.13,0,1,0,0-4.27H133a2.13,2.13,0,1,1,0-4.27h42.67a2.13,2.13,0,1,1,0,4.27H154.33a2.13,2.13,0,0,0-2.13,2.13V229L140,241.2a2.13,2.13,0,1,0,3,3l12.8-12.8a2.14,2.14,0,0,0,.63-1.51V193.64h19.2a6.4,6.4,0,1,0,0-12.8Z"/><path class="cls-2" d="M147.93,151a2.13,2.13,0,0,0-1.71.85c-7.11,9.48-.49,23-.2,23.57a2.13,2.13,0,0,0,3.82-1.91c-.06-.11-5.3-10.88-.78-18.25H159.6c4.52,7.37-.73,18.14-.79,18.25a2.13,2.13,0,0,0,1,2.86,2.1,2.1,0,0,0,.95.22,2.13,2.13,0,0,0,1.91-1.18c.29-.57,6.91-14.09-.2-23.57a2.14,2.14,0,0,0-1.71-.85h-4.27V136h2.13a6.41,6.41,0,0,0,6.4-6.4v-6.4a2.13,2.13,0,0,0-2.65-2.07l-5.88,1.47V121.1a2.13,2.13,0,0,0-1.62-2.07l-8.53-2.13a2.13,2.13,0,0,0-2.65,2.07v10.67a6.41,6.41,0,0,0,6.4,6.4h2.13v5.52l-.62-.62a2.13,2.13,0,0,0-3,3l3.64,3.64V151ZM156.46,127l4.27-1.07v3.67a2.14,2.14,0,0,1-2.13,2.13h-2.13V127Zm-6.4,4.73a2.14,2.14,0,0,1-2.13-2.13V121.7l4.27,1.07v9Z"/><path class="cls-2" d="M216.19,168a32,32,0,0,0-32,32,2.14,2.14,0,0,0,.63,1.51c.54.53.64.63,5.67.63h4.38a2.13,2.13,0,0,0,0-4.27h-6.32a27.78,27.78,0,0,1,25.52-25.53v19.09a6.42,6.42,0,0,1-6.4,6.43h-4.27a2.13,2.13,0,0,0-2.13,2.13v40.55h-6.4a2.13,2.13,0,1,0,0,4.27h17.07a2.13,2.13,0,1,0,0-4.27h-6.4V202.16h2.13a10.69,10.69,0,0,0,10.67-10.69V170.16A2.13,2.13,0,0,0,216.19,168Z"/><path class="cls-2" d="M92.46,168a2.13,2.13,0,0,0-2.13,2.13v21.31A10.69,10.69,0,0,0,101,202.16h2.13v38.42h-6.4a2.13,2.13,0,1,0,0,4.27h17.07a2.13,2.13,0,1,0,0-4.27h-6.4V200a2.13,2.13,0,0,0-2.13-2.13H101a6.42,6.42,0,0,1-6.4-6.43V172.37a27.78,27.78,0,0,1,25.52,25.53h-6.32a2.13,2.13,0,0,0,0,4.27h4.38c5,0,5.14-.1,5.67-.63a2.14,2.14,0,0,0,.63-1.51A32,32,0,0,0,92.46,168Z"/><path class="cls-2" d="M162.24,234.8a2.13,2.13,0,1,0-3,3l6.4,6.4a2.13,2.13,0,0,0,3-3Z"/></g><g id="outlined_text" data-name="outlined text"><path class="cls-2" d="M105.17,69.24v-20h2.13v20Z"/><path class="cls-2" d="M122,69.24l-7.74-17.43V69.24h-1.95v-20h2.94L123,66.72V49.23h2v20Z"/><path class="cls-2" d="M134.42,51.09V69.24h-2.13V51.09h-4.5V49.23h11.1v1.86Z"/><path class="cls-2" d="M141.77,69.24v-20h8.79v1.86h-6.69V58h6.33v1.8h-6.33v7.62h7v1.86Z"/><path class="cls-2" d="M163.94,69.24l-2.37-6.75c-.48-1.35-1-2.43-2.52-2.43h-2.19v9.18h-2.1v-20h5c3.15,0,5.37,2,5.37,5.16a4.49,4.49,0,0,1-3.93,4.83c1.17.21,1.62.81,2.07,2l3,8Zm-4.83-18.18h-2.25v7.17h2.34c2.49,0,3.66-1.29,3.66-3.69S161.39,51.06,159.11,51.06Z"/><path class="cls-2" d="M169.46,69.24v-20h2.13v20Z"/><path class="cls-2" d="M182.69,69.57c-5.79,0-7.08-5.67-7.08-10.32s1.56-10.32,7.08-10.32c5.85,0,7.08,5.67,7.08,10.32S188.21,69.57,182.69,69.57Zm0-18.78c-4.23,0-4.86,5.16-4.86,8.46,0,3.51.63,8.46,4.86,8.46s4.86-5.13,4.86-8.46S187.07,50.79,182.69,50.79Z"/><path class="cls-2" d="M203,69.24l-2.37-6.75c-.48-1.35-1-2.43-2.52-2.43h-2.19v9.18h-2.1v-20h5c3.15,0,5.37,2,5.37,5.16a4.49,4.49,0,0,1-3.93,4.83c1.17.21,1.62.81,2.07,2l3,8Zm-4.83-18.18h-2.25v7.17h2.34c2.49,0,3.66-1.29,3.66-3.69S200.45,51.06,198.17,51.06Z"/><path class="cls-2" d="M117.92,95.24h-2.85v-20h3.57c6.21,0,9,3.9,9,9.87C127.67,91.55,124.52,95.24,117.92,95.24ZM119,77.09H117.2V93.38h1.38c5.1,0,6.87-3.66,6.87-8.28C125.45,80.78,123.86,77.09,119,77.09Z"/><path class="cls-2" d="M131.69,95.24v-20h8.79v1.86h-6.69V84h6.33v1.8h-6.33v7.62h7v1.86Z"/><path class="cls-2" d="M147.41,95.57a9,9,0,0,1-3.87-.78l.18-2.19a7,7,0,0,0,3.75,1.08A3.2,3.2,0,0,0,151,90.23c0-1.92-.93-2.88-3.09-4.47l-1.29-.93c-1.83-1.35-2.88-2.55-2.88-4.8,0-3.84,3.24-5.1,5.55-5.1a7.49,7.49,0,0,1,3.3.63l-.18,2a5.77,5.77,0,0,0-3-.78c-1.65,0-3.48.84-3.48,3.09,0,1.68.84,2.4,2.19,3.36l1.26.9c2.64,1.83,3.81,3.3,3.81,5.79C153.23,93.32,150.89,95.57,147.41,95.57Z"/><path class="cls-2" d="M157.22,95.24v-20h2.13v20Z"/><path class="cls-2" d="M176.66,94.43A9.75,9.75,0,0,1,172,95.57c-6.06,0-8.58-5-8.58-10.32s3-10.32,8.64-10.32a9.67,9.67,0,0,1,4.26,1l-.18,2.16a7.59,7.59,0,0,0-4.2-1.26c-4.5,0-6.3,4.44-6.3,8.43s1.77,8.43,6.51,8.43a4.89,4.89,0,0,0,2.52-.6V86.3h-3.39V84.5h5.43Z"/><path class="cls-2" d="M190.67,95.24l-7.74-17.43V95.24h-2v-20h2.94l7.71,17.49V75.23h2v20Z"/></g></g></svg>