<svg xmlns="http://www.w3.org/2000/svg" viewBox="0 0 308.66 308.66"><defs><style>.cls-1{fill:#006594;}.cls-2{fill:#fff;}</style></defs><title>Asset 11</title><g id="Layer_2" data-name="Layer 2"><g id="circles"><circle class="cls-1" cx="154.33" cy="154.33" r="154.33"/></g><g id="symbols"><path class="cls-2" d="M113.79,180.84h-8.53a2.13,2.13,0,0,0-2.13,2.13v4.27a2.13,2.13,0,0,0,4.27,0V185.1h4.27v10.67a2.13,2.13,0,0,0,4.27,0V183A2.13,2.13,0,0,0,113.79,180.84Z"/><path class="cls-2" d="M146.67,125l2.44,1.77-1,2.8a2.13,2.13,0,0,0,2,2.85,2.09,2.09,0,0,0,.87-.18l3.42-1.52,3.35,1.51a2.13,2.13,0,0,0,2.9-2.63l-.94-2.76,2.36-1.9a2.13,2.13,0,0,0-1.34-3.79h-2.95L156.24,118a2.22,2.22,0,0,0-3.82,0l-1.54,3.09h-2.95a2.13,2.13,0,0,0-1.25,3.86Zm7.43-.77.23-.45.22.45a2.11,2.11,0,0,0,.79.86,2.14,2.14,0,0,0-.25,1.27,2.12,2.12,0,0,0-1.33,0,2.15,2.15,0,0,0-.24-1.41A2.15,2.15,0,0,0,154.1,124.19Z"/><path class="cls-2" d="M101,193.64c-10.54,0-10.67,27.46-10.67,27.73a10.69,10.69,0,0,0,8.53,10.45V242.7a2.13,2.13,0,0,0,4.27,0V231.82a10.69,10.69,0,0,0,8.53-10.45C111.66,221.09,111.54,193.64,101,193.64Zm0,34.13a6.41,6.41,0,0,1-6.4-6.4c0-10.63,2.85-23.47,6.4-23.47s6.4,12.84,6.4,23.47A6.41,6.41,0,0,1,101,227.77Z"/><path class="cls-2" d="M127.47,125l2.44,1.77-1,2.8a2.13,2.13,0,0,0,2,2.85,2.09,2.09,0,0,0,.87-.18l3.42-1.52,3.35,1.51a2.13,2.13,0,0,0,2.9-2.63l-.94-2.76,2.36-1.9a2.13,2.13,0,0,0-1.34-3.79h-2.95L137,118a2.22,2.22,0,0,0-3.82,0l-1.54,3.09h-2.95a2.13,2.13,0,0,0-1.25,3.86Zm7.43-.77.23-.45.22.45a2.11,2.11,0,0,0,.79.86,2.14,2.14,0,0,0-.25,1.27,2.12,2.12,0,0,0-1.33,0,2.15,2.15,0,0,0-.24-1.41A2.15,2.15,0,0,0,134.9,124.19Z"/><path class="cls-2" d="M168,125l2.44,1.77-1,2.8a2.13,2.13,0,0,0,2,2.85,2.09,2.09,0,0,0,.87-.18l3.42-1.52,3.35,1.51a2.13,2.13,0,0,0,2.9-2.63L181,126.8l2.36-1.9a2.13,2.13,0,0,0-1.34-3.79h-2.95L177.57,118a2.22,2.22,0,0,0-3.82,0l-1.54,3.09h-2.95A2.13,2.13,0,0,0,168,125Zm7.43-.77.23-.45.22.45a2.11,2.11,0,0,0,.79.86,2.14,2.14,0,0,0-.25,1.27,2.12,2.12,0,0,0-1.33,0,2.15,2.15,0,0,0-.24-1.41A2.16,2.16,0,0,0,175.44,124.19Z"/><path class="cls-2" d="M106.14,125l2.44,1.77-1,2.8a2.13,2.13,0,0,0,2,2.85,2.09,2.09,0,0,0,.87-.18l3.42-1.52,3.35,1.51a2.13,2.13,0,0,0,2.9-2.63l-.94-2.76,2.36-1.9a2.13,2.13,0,0,0-1.34-3.79h-2.95L115.7,118a2.22,2.22,0,0,0-3.82,0l-1.54,3.09h-2.95a2.13,2.13,0,0,0-1.25,3.86Zm7.43-.77.23-.45.22.45a2.11,2.11,0,0,0,.79.86,2.14,2.14,0,0,0-.25,1.27,2.12,2.12,0,0,0-1.33,0,2.15,2.15,0,0,0-.24-1.41A2.15,2.15,0,0,0,113.57,124.19Z"/><path class="cls-2" d="M189.34,125l2.44,1.77-1,2.8a2.13,2.13,0,0,0,2,2.85,2.09,2.09,0,0,0,.87-.18l3.42-1.52,3.35,1.51a2.13,2.13,0,0,0,2.9-2.63l-.94-2.76,2.36-1.9a2.13,2.13,0,0,0-1.34-3.79h-2.95L198.9,118a2.22,2.22,0,0,0-3.82,0l-1.54,3.09h-2.95a2.13,2.13,0,0,0-1.25,3.86Zm7.43-.77.23-.45.22.45a2.11,2.11,0,0,0,.79.86,2.14,2.14,0,0,0-.25,1.27,2.12,2.12,0,0,0-1.33,0,2.15,2.15,0,0,0-.24-1.41A2.15,2.15,0,0,0,196.77,124.19Z"/><path class="cls-2" d="M211.93,232a6.27,6.27,0,0,0-1.1.1,8.52,8.52,0,0,0-14.87,0,6.27,6.27,0,0,0-1.1-.1,6.4,6.4,0,1,0,0,12.8h17.07a6.4,6.4,0,0,0,0-12.8Zm0,8.53H194.86a2.13,2.13,0,1,1,1.16-3.92,2.13,2.13,0,0,0,3.24-1.31,4.25,4.25,0,0,1,8.28,0,2.13,2.13,0,0,0,3.24,1.31,2.18,2.18,0,0,1,3.29,1.79A2.13,2.13,0,0,1,211.93,240.57Z"/><path class="cls-2" d="M113.79,155.24h-8.53a2.13,2.13,0,0,0-2.13,2.13v12.8a2.13,2.13,0,0,0,2.13,2.13h8.53a2.13,2.13,0,0,0,2.13-2.13v-12.8A2.13,2.13,0,0,0,113.79,155.24ZM111.66,168h-4.27V159.5h4.27V168Z"/><path class="cls-2" d="M182.06,146.7a2.13,2.13,0,0,0-2.13,2.13V229.9a2.13,2.13,0,1,0,4.27,0V148.84A2.13,2.13,0,0,0,182.06,146.7Z"/><path class="cls-2" d="M192.73,195.77a2.13,2.13,0,0,0,2.13,2.13h8.53a2.13,2.13,0,0,0,2.13-2.13V183a2.13,2.13,0,0,0-2.13-2.13h-8.53a2.13,2.13,0,0,0-2.13,2.13ZM197,185.1h4.27v8.53H197Z"/><path class="cls-2" d="M216.19,133.9a2.13,2.13,0,0,0-2.13,2.13v2.13H94.59V136a2.13,2.13,0,0,0-4.27,0v51.2a2.13,2.13,0,0,0,4.27,0v-44.8H214.06v85.33a2.13,2.13,0,1,0,4.27,0V136A2.13,2.13,0,0,0,216.19,133.9Z"/><path class="cls-2" d="M192.73,221.37a2.13,2.13,0,0,0,2.13,2.13h8.53a2.13,2.13,0,0,0,2.13-2.13v-12.8a2.13,2.13,0,0,0-2.13-2.13h-8.53a2.13,2.13,0,0,0-2.13,2.13ZM197,210.7h4.27v8.53H197Z"/><path class="cls-2" d="M194.86,172.3h8.53a2.13,2.13,0,0,0,2.13-2.13v-12.8a2.13,2.13,0,0,0-2.13-2.13h-8.53a2.13,2.13,0,0,0-2.13,2.13v12.8A2.13,2.13,0,0,0,194.86,172.3ZM197,159.5h4.27V168H197Z"/><path class="cls-2" d="M160.73,172.3h8.53a2.13,2.13,0,0,0,2.13-2.13v-12.8a2.13,2.13,0,0,0-2.13-2.13h-8.53a2.13,2.13,0,0,0-2.13,2.13v12.8A2.13,2.13,0,0,0,160.73,172.3Zm2.13-12.8h4.27V168h-4.27V159.5Z"/><path class="cls-2" d="M128.73,229.9V148.84a2.13,2.13,0,0,0-4.27,0V229.9a2.13,2.13,0,0,0,4.27,0Z"/><path class="cls-2" d="M182.06,236.3H122.33a2.13,2.13,0,0,0-2.13,2.13v4.27a2.13,2.13,0,0,0,4.27,0v-2.13h57.6a2.13,2.13,0,0,0,0-4.27Z"/><path class="cls-2" d="M137.26,195.77a2.13,2.13,0,0,0,2.13,2.13h8.53a2.13,2.13,0,0,0,2.13-2.13V183a2.13,2.13,0,0,0-2.13-2.13h-8.53a2.13,2.13,0,0,0-2.13,2.13v12.8Zm4.27-10.67h4.27v8.53h-4.27Z"/><path class="cls-2" d="M139.39,172.3h8.53a2.13,2.13,0,0,0,2.13-2.13v-12.8a2.13,2.13,0,0,0-2.13-2.13h-8.53a2.13,2.13,0,0,0-2.13,2.13v12.8A2.13,2.13,0,0,0,139.39,172.3Zm2.13-12.8h4.27V168h-4.27Z"/><path class="cls-2" d="M133,208.57a2.13,2.13,0,0,0,2.13,2.13h2.13v19.2a2.13,2.13,0,0,0,4.27,0V210.7h10.67v8.53a2.13,2.13,0,1,0,0,4.27v6.4a2.13,2.13,0,0,0,4.27,0v-6.4a2.13,2.13,0,0,0,0-4.27V210.7h10.67v19.2a2.13,2.13,0,1,0,4.27,0V210.7h2.13a2.13,2.13,0,0,0,0-4.27h-38.4A2.13,2.13,0,0,0,133,208.57Z"/><path class="cls-2" d="M158.59,195.77a2.13,2.13,0,0,0,2.13,2.13h8.53a2.13,2.13,0,0,0,2.13-2.13V183a2.13,2.13,0,0,0-2.13-2.13h-8.53a2.13,2.13,0,0,0-2.13,2.13v12.8Zm4.27-10.67h4.27v8.53h-4.27V185.1Z"/></g><g id="outlined_text" data-name="outlined text"><path class="cls-2" d="M124,82.24l-2.37-6.75c-.48-1.35-1-2.43-2.52-2.43H117v9.18h-2.1v-20h5c3.15,0,5.37,2,5.37,5.16a4.49,4.49,0,0,1-3.93,4.83c1.17.21,1.62.81,2.07,2l3,8Zm-4.83-18.18H117v7.17h2.34c2.49,0,3.66-1.29,3.66-3.69S121.49,64.06,119.21,64.06Z"/><path class="cls-2" d="M129.56,82.24v-20h8.79v1.86h-6.69V71H138v1.8h-6.33v7.62h7v1.86Z"/><path class="cls-2" d="M145.28,82.57a9,9,0,0,1-3.87-.78l.18-2.19a7,7,0,0,0,3.75,1.08,3.2,3.2,0,0,0,3.54-3.45c0-1.92-.93-2.88-3.09-4.47l-1.29-.93c-1.83-1.35-2.88-2.55-2.88-4.8,0-3.84,3.24-5.1,5.55-5.1a7.47,7.47,0,0,1,3.3.63l-.18,2a5.77,5.77,0,0,0-3-.78c-1.65,0-3.48.84-3.48,3.09,0,1.68.84,2.4,2.19,3.36l1.26.9c2.64,1.83,3.81,3.3,3.81,5.79C151.1,80.32,148.76,82.57,145.28,82.57Z"/><path class="cls-2" d="M161.18,82.57c-5.79,0-7.08-5.67-7.08-10.32s1.56-10.32,7.08-10.32c5.85,0,7.08,5.67,7.08,10.32S166.7,82.57,161.18,82.57Zm0-18.78c-4.23,0-4.86,5.16-4.86,8.46,0,3.51.63,8.46,4.86,8.46S166,75.58,166,72.25,165.56,63.79,161.18,63.79Z"/><path class="cls-2" d="M181.49,82.24l-2.37-6.75c-.48-1.35-1-2.43-2.52-2.43h-2.19v9.18h-2.1v-20h5c3.15,0,5.37,2,5.37,5.16a4.49,4.49,0,0,1-3.93,4.83c1.17.21,1.62.81,2.07,2l3,8Zm-4.83-18.18h-2.25v7.17h2.34c2.49,0,3.66-1.29,3.66-3.69S178.94,64.06,176.66,64.06Z"/><path class="cls-2" d="M191.48,64.09V82.24h-2.13V64.09h-4.5V62.23H196v1.86Z"/></g></g></svg>