<svg xmlns="http://www.w3.org/2000/svg" viewBox="0 0 308.66 308.66"><defs><style>.cls-1{fill:#006594;}.cls-2{fill:#fff;}</style></defs><title>Asset 12</title><g id="Layer_2" data-name="Layer 2"><g id="circles"><circle class="cls-1" cx="154.33" cy="154.33" r="154.33"/></g><g id="symbols"><path class="cls-2" d="M124.31,232.35a10.67,10.67,0,0,0-20.09-2.87,9.07,9.07,0,0,0-1.09-.66V193.64a2.13,2.13,0,0,0-4.27,0v34.13a8.53,8.53,0,0,0,0,17.07h23.47a6.4,6.4,0,0,0,2-12.49Zm-2,8.22H98.86a4.27,4.27,0,1,1,0-8.53,4.63,4.63,0,0,1,4.4,2.88,2.13,2.13,0,0,0,4.13-.75,6.4,6.4,0,1,1,12.8,0,2.13,2.13,0,0,0,2.13,2.13,2.13,2.13,0,0,1,0,4.27Z"/><path class="cls-2" d="M216.19,133.9H175.66a2.13,2.13,0,0,0,0,4.27h38.4v46.05L155.84,126a2.15,2.15,0,0,0-3,0L94.59,184.22v-46h23.47a2.13,2.13,0,0,0,2.13-2.13V127.5a2.13,2.13,0,0,0-2.13-2.13h-2.13V121.1h12.8v4.27h-2.13a2.13,2.13,0,0,0-2.13,2.13V136a2.13,2.13,0,0,0,2.13,2.13H133a2.13,2.13,0,1,0,0-4.27h-4.27v-4.27h2.13A2.13,2.13,0,0,0,133,127.5V119a2.13,2.13,0,0,0-2.13-2.13H113.79a2.13,2.13,0,0,0-2.13,2.13v8.53a2.13,2.13,0,0,0,2.13,2.13h2.13v4.27H92.46A2.13,2.13,0,0,0,90.33,136v53.33A2.13,2.13,0,0,0,94,190.88l60.34-60.36,60.36,60.36a2.13,2.13,0,0,0,3.64-1.51V136A2.13,2.13,0,0,0,216.19,133.9Z"/><path class="cls-2" d="M209.79,227.77V193.64a2.13,2.13,0,0,0-4.27,0v35.18a9,9,0,0,0-1.09.66,10.67,10.67,0,0,0-20.09,2.87,6.41,6.41,0,0,0-4.42,6.09,6.26,6.26,0,0,0,.39,2.13H143.66a2.13,2.13,0,1,0,0,4.27h66.13a8.53,8.53,0,1,0,0-17.07Zm0,12.8H186.33a2.13,2.13,0,1,1,0-4.27,2.13,2.13,0,0,0,2.13-2.13,6.4,6.4,0,0,1,12.8,0,2.13,2.13,0,0,0,4.13.75,4.64,4.64,0,0,1,4.4-2.88,4.27,4.27,0,1,1,0,8.53Z"/><path class="cls-2" d="M162.86,159.5a8.53,8.53,0,1,0-8.53,8.53A8.54,8.54,0,0,0,162.86,159.5Zm-12.8,0a4.27,4.27,0,1,1,4.27,4.27A4.27,4.27,0,0,1,150.06,159.5Z"/><path class="cls-2" d="M194.86,189.37H177.79a2.13,2.13,0,0,0-2.13,2.13V215h-2.13a2.13,2.13,0,0,0,0,4.27h25.6a2.13,2.13,0,0,0,0-4.27H197V191.5A2.13,2.13,0,0,0,194.86,189.37ZM192.73,215h-12.8v-8.53h12.8Zm0-12.8h-12.8v-8.53h12.8Z"/><path class="cls-2" d="M175.66,234.17a2.13,2.13,0,0,0-2.13-2.13h-6.4V191.5a2.13,2.13,0,0,0-2.13-2.13H143.66a2.13,2.13,0,0,0-2.13,2.13V232h-6.4a2.13,2.13,0,0,0-2.13,2.13v8.53a2.13,2.13,0,0,0,4.27,0v-6.4h36.27A2.13,2.13,0,0,0,175.66,234.17Zm-12.8-23.47h-2.13a2.13,2.13,0,1,0,0,4.27h2.13V232H145.79v-38.4h17.07Z"/><path class="cls-2" d="M130.86,189.37H113.79a2.13,2.13,0,0,0-2.13,2.13V215h-2.13a2.13,2.13,0,0,0,0,4.27h25.6a2.13,2.13,0,1,0,0-4.27H133V191.5A2.13,2.13,0,0,0,130.86,189.37ZM128.73,215h-12.8v-8.53h12.8Zm0-12.8h-12.8v-8.53h12.8Z"/></g><g id="outlined_text" data-name="outlined text"><path class="cls-2" d="M95.47,82.24,93.1,75.49c-.48-1.35-1-2.43-2.52-2.43H88.39v9.18h-2.1v-20h5c3.15,0,5.37,2,5.37,5.16a4.49,4.49,0,0,1-3.93,4.83c1.17.21,1.62.81,2.07,2l3,8ZM90.64,64.06H88.39v7.17h2.34c2.49,0,3.66-1.29,3.66-3.69S92.92,64.06,90.64,64.06Z"/><path class="cls-2" d="M101,82.24v-20h8.79v1.86h-6.69V71h6.33v1.8h-6.33v7.62h7v1.86Z"/><path class="cls-2" d="M116.71,82.57a9,9,0,0,1-3.87-.78L113,79.6a7,7,0,0,0,3.75,1.08,3.2,3.2,0,0,0,3.54-3.45c0-1.92-.93-2.88-3.09-4.47l-1.29-.93C114.1,70.48,113,69.28,113,67c0-3.84,3.24-5.1,5.55-5.1a7.47,7.47,0,0,1,3.3.63l-.18,2a5.77,5.77,0,0,0-3-.78c-1.65,0-3.48.84-3.48,3.09,0,1.68.84,2.4,2.19,3.36l1.26.9c2.64,1.83,3.81,3.3,3.81,5.79C122.53,80.32,120.19,82.57,116.71,82.57Z"/><path class="cls-2" d="M126.52,82.24v-20h2.13v20Z"/><path class="cls-2" d="M136.51,82.24h-2.85v-20h3.57c6.21,0,9,3.9,9,9.87C146.26,78.55,143.11,82.24,136.51,82.24Zm1-18.15h-1.77V80.38h1.38c5.1,0,6.87-3.66,6.87-8.28C144,67.78,142.45,64.09,137.56,64.09Z"/><path class="cls-2" d="M150.28,82.24v-20h8.79v1.86h-6.69V71h6.33v1.8h-6.33v7.62h7v1.86Z"/><path class="cls-2" d="M173,82.24l-7.74-17.43V82.24h-2v-20h2.94l7.71,17.49V62.23h2v20Z"/><path class="cls-2" d="M185.38,64.09V82.24h-2.13V64.09h-4.5V62.23h11.1v1.86Z"/><path class="cls-2" d="M192.73,82.24v-20h2.13v20Z"/><path class="cls-2" d="M210.79,82.24l-1.62-5.43h-7.71l-1.65,5.43h-2.1l6.54-20h2.25l6.51,20Zm-5.46-18L202,75h6.66Z"/><path class="cls-2" d="M215.86,82.24v-20H218V80.38h6.36v1.86Z"/></g></g></svg>