<?xml version="1.0" encoding="utf-8"?>
<!-- Generator: Adobe Illustrator 21.1.0, SVG Export Plug-In . SVG Version: 6.00 Build 0)  -->
<svg version="1.1" id="Layer_1" xmlns="http://www.w3.org/2000/svg" xmlns:xlink="http://www.w3.org/1999/xlink" x="0px" y="0px"
	 viewBox="0 0 512 512" style="enable-background:new 0 0 512 512;" xml:space="preserve">
<style type="text/css">
	.st0{fill:#FFFFFF;}
</style>
<g>
	<g>
		<g>
			<path class="st0" d="M341.3,256H170.7c-14.1,0-25.6,11.5-25.6,25.6s11.5,25.6,25.6,25.6h51.2c4.7,0,8.5-3.8,8.5-8.5
				s-3.8-8.5-8.5-8.5h-51.2c-4.7,0-8.5-3.8-8.5-8.5s3.8-8.5,8.5-8.5h170.7c4.7,0,8.5,3.8,8.5,8.5s-3.8,8.5-8.5,8.5H256
				c-4.7,0-8.5,3.8-8.5,8.5v150.1l-48.7,48.7c-3.3,3.3-3.3,8.7,0,12.1c1.7,1.7,3.8,2.5,6,2.5c2.2,0,4.4-0.8,6-2.5l51.2-51.2
				c1.6-1.6,2.5-3.8,2.5-6V307.2h76.8c14.1,0,25.6-11.5,25.6-25.6S355.4,256,341.3,256z"/>
			<path class="st0" d="M230.4,136.5c-2.7,0-5.2,1.3-6.8,3.4c-28.4,37.9-1.9,92-0.8,94.3c2.1,4.2,7.3,5.9,11.4,3.8
				c4.2-2.1,5.9-7.2,3.8-11.4c-0.2-0.5-21.2-43.5-3.1-73h42.2c18.1,29.5-2.9,72.5-3.1,73c-2.1,4.2-0.4,9.3,3.8,11.4
				c1.2,0.6,2.5,0.9,3.8,0.9c3.1,0,6.1-1.7,7.6-4.7c1.1-2.3,27.6-56.4-0.8-94.3c-1.6-2.1-4.1-3.4-6.8-3.4h-17.1V76.8h8.5
				c14.1,0,25.6-11.5,25.6-25.6V25.6c0-2.6-1.2-5.1-3.3-6.7c-2.1-1.6-4.8-2.2-7.3-1.6l-23.5,5.9v-6.1c0-3.9-2.7-7.3-6.5-8.3
				l-34.1-8.5c-2.5-0.6-5.2-0.1-7.3,1.6c-2.1,1.6-3.3,4.1-3.3,6.7v42.7c0,14.1,11.5,25.6,25.6,25.6h8.5v22.1l-2.5-2.5
				c-3.3-3.3-8.7-3.3-12.1,0c-3.3,3.3-3.3,8.7,0,12.1l14.6,14.6v13.5H230.4z M264.5,40.8l17.1-4.3v14.7c0,4.7-3.8,8.5-8.5,8.5h-8.5
				L264.5,40.8L264.5,40.8z M238.9,59.7c-4.7,0-8.5-3.8-8.5-8.5V19.5l17.1,4.3v36H238.9z"/>
			<path class="st0" d="M503.5,204.7c-70.6,0-128,57.4-128,128c0,2.3,0.9,4.4,2.5,6c2.1,2.1,2.6,2.5,22.7,2.5c4.7,0,10.4,0,17.5-0.1
				c4.7,0,8.5-3.9,8.5-8.6c0-4.7-3.8-8.5-8.5-8.5h0c-7.5,0-18,0.1-25.3,0.1c4.1-54.4,47.7-98,102.1-102.1v76.4
				c0,14.2-11.5,25.7-25.6,25.7h-17.1c-4.7,0-8.5,3.8-8.5,8.5v162.2h-25.6c-4.7,0-8.5,3.8-8.5,8.5s3.8,8.5,8.5,8.5h68.3
				c4.7,0,8.5-3.8,8.5-8.5s-3.8-8.5-8.5-8.5h-25.6V341.3h8.5c23.5,0,42.7-19.2,42.7-42.8v-85.2C512,208.6,508.2,204.7,503.5,204.7z"
				/>
			<path class="st0" d="M8.5,204.7c-4.7,0-8.5,3.8-8.5,8.5v85.2c0,23.6,19.1,42.8,42.7,42.8h8.5v153.7H25.6c-4.7,0-8.5,3.8-8.5,8.5
				s3.8,8.5,8.5,8.5h68.3c4.7,0,8.5-3.8,8.5-8.5s-3.8-8.5-8.5-8.5H68.3V332.7c0-4.7-3.8-8.5-8.5-8.5H42.7
				c-14.1,0-25.6-11.5-25.6-25.7v-76.4c54.4,4.2,97.9,47.7,102.1,102.1c-7.3,0-17.8,0-25.3-0.1h0c-4.7,0-8.5,3.8-8.5,8.5
				c0,4.7,3.8,8.5,8.5,8.6c7.1,0,12.8,0.1,17.5,0.1c20.1,0,20.5-0.4,22.7-2.5c1.6-1.6,2.5-3.8,2.5-6
				C136.5,262.2,79.1,204.7,8.5,204.7z"/>
			<path class="st0" d="M287.6,471.8c-3.3-3.3-8.7-3.3-12.1,0c-3.3,3.3-3.3,8.7,0,12.1l25.6,25.6c1.7,1.7,3.8,2.5,6,2.5
				c2.2,0,4.4-0.8,6-2.5c3.3-3.3,3.3-8.7,0-12.1L287.6,471.8z"/>
		</g>
	</g>
</g>
</svg>
